<?xml version="1.0" encoding="utf-8" standalone="no"?>
<!DOCTYPE svg PUBLIC "-//W3C//DTD SVG 1.1//EN"
  "http://www.w3.org/Graphics/SVG/1.1/DTD/svg11.dtd">
<svg xmlns:xlink="http://www.w3.org/1999/xlink" width="648pt" height="432pt" viewBox="0 0 648 432" xmlns="http://www.w3.org/2000/svg" version="1.1">
 <metadata>
  <rdf:RDF xmlns:dc="http://purl.org/dc/elements/1.1/" xmlns:cc="http://creativecommons.org/ns#" xmlns:rdf="http://www.w3.org/1999/02/22-rdf-syntax-ns#">
   <cc:Work>
    <dc:type rdf:resource="http://purl.org/dc/dcmitype/StillImage"/>
    <dc:date>2024-11-10T23:31:39.092563</dc:date>
    <dc:format>image/svg+xml</dc:format>
    <dc:creator>
     <cc:Agent>
      <dc:title>Matplotlib v3.9.2, https://matplotlib.org/</dc:title>
     </cc:Agent>
    </dc:creator>
   </cc:Work>
  </rdf:RDF>
 </metadata>
 <defs>
  <style type="text/css">*{stroke-linejoin: round; stroke-linecap: butt}</style>
 </defs>
 <g id="figure_1">
  <g id="patch_1">
   <path d="M 0 432 
L 648 432 
L 648 0 
L 0 0 
z
" style="fill: #ffffff"/>
  </g>
  <g id="axes_1">
   <g id="patch_2">
    <path d="M 81 384.48 
L 583.2 384.48 
L 583.2 51.84 
L 81 51.84 
z
" style="fill: #ffffff"/>
   </g>
   <g id="matplotlib.axis_1">
    <g id="xtick_1">
     <g id="line2d_1">
      <path d="M 81 384.48 
L 81 51.84 
" clip-path="url(#p80bdee05c5)" style="fill: none; stroke: #b0b0b0; stroke-width: 0.8; stroke-linecap: square"/>
     </g>
     <g id="line2d_2">
      <defs>
       <path id="m42b3c401b5" d="M 0 0 
L 0 3.5 
" style="stroke: #000000; stroke-width: 0.8"/>
      </defs>
      <g>
       <use xlink:href="#m42b3c401b5" x="81" y="384.48" style="stroke: #000000; stroke-width: 0.8"/>
      </g>
     </g>
     <g id="text_1">
      <!-- −2.0 -->
      <g transform="translate(68.858594 399.078438) scale(0.1 -0.1)">
       <defs>
        <path id="DejaVuSans-2212" d="M 678 2272 
L 4684 2272 
L 4684 1741 
L 678 1741 
L 678 2272 
z
" transform="scale(0.015625)"/>
        <path id="DejaVuSans-32" d="M 1228 531 
L 3431 531 
L 3431 0 
L 469 0 
L 469 531 
Q 828 903 1448 1529 
Q 2069 2156 2228 2338 
Q 2531 2678 2651 2914 
Q 2772 3150 2772 3378 
Q 2772 3750 2511 3984 
Q 2250 4219 1831 4219 
Q 1534 4219 1204 4116 
Q 875 4013 500 3803 
L 500 4441 
Q 881 4594 1212 4672 
Q 1544 4750 1819 4750 
Q 2544 4750 2975 4387 
Q 3406 4025 3406 3419 
Q 3406 3131 3298 2873 
Q 3191 2616 2906 2266 
Q 2828 2175 2409 1742 
Q 1991 1309 1228 531 
z
" transform="scale(0.015625)"/>
        <path id="DejaVuSans-2e" d="M 684 794 
L 1344 794 
L 1344 0 
L 684 0 
L 684 794 
z
" transform="scale(0.015625)"/>
        <path id="DejaVuSans-30" d="M 2034 4250 
Q 1547 4250 1301 3770 
Q 1056 3291 1056 2328 
Q 1056 1369 1301 889 
Q 1547 409 2034 409 
Q 2525 409 2770 889 
Q 3016 1369 3016 2328 
Q 3016 3291 2770 3770 
Q 2525 4250 2034 4250 
z
M 2034 4750 
Q 2819 4750 3233 4129 
Q 3647 3509 3647 2328 
Q 3647 1150 3233 529 
Q 2819 -91 2034 -91 
Q 1250 -91 836 529 
Q 422 1150 422 2328 
Q 422 3509 836 4129 
Q 1250 4750 2034 4750 
z
" transform="scale(0.015625)"/>
       </defs>
       <use xlink:href="#DejaVuSans-2212"/>
       <use xlink:href="#DejaVuSans-32" x="83.789062"/>
       <use xlink:href="#DejaVuSans-2e" x="147.412109"/>
       <use xlink:href="#DejaVuSans-30" x="179.199219"/>
      </g>
     </g>
    </g>
    <g id="xtick_2">
     <g id="line2d_3">
      <path d="M 143.775 384.48 
L 143.775 51.84 
" clip-path="url(#p80bdee05c5)" style="fill: none; stroke: #b0b0b0; stroke-width: 0.8; stroke-linecap: square"/>
     </g>
     <g id="line2d_4">
      <g>
       <use xlink:href="#m42b3c401b5" x="143.775" y="384.48" style="stroke: #000000; stroke-width: 0.8"/>
      </g>
     </g>
     <g id="text_2">
      <!-- −1.5 -->
      <g transform="translate(131.633594 399.078438) scale(0.1 -0.1)">
       <defs>
        <path id="DejaVuSans-31" d="M 794 531 
L 1825 531 
L 1825 4091 
L 703 3866 
L 703 4441 
L 1819 4666 
L 2450 4666 
L 2450 531 
L 3481 531 
L 3481 0 
L 794 0 
L 794 531 
z
" transform="scale(0.015625)"/>
        <path id="DejaVuSans-35" d="M 691 4666 
L 3169 4666 
L 3169 4134 
L 1269 4134 
L 1269 2991 
Q 1406 3038 1543 3061 
Q 1681 3084 1819 3084 
Q 2600 3084 3056 2656 
Q 3513 2228 3513 1497 
Q 3513 744 3044 326 
Q 2575 -91 1722 -91 
Q 1428 -91 1123 -41 
Q 819 9 494 109 
L 494 744 
Q 775 591 1075 516 
Q 1375 441 1709 441 
Q 2250 441 2565 725 
Q 2881 1009 2881 1497 
Q 2881 1984 2565 2268 
Q 2250 2553 1709 2553 
Q 1456 2553 1204 2497 
Q 953 2441 691 2322 
L 691 4666 
z
" transform="scale(0.015625)"/>
       </defs>
       <use xlink:href="#DejaVuSans-2212"/>
       <use xlink:href="#DejaVuSans-31" x="83.789062"/>
       <use xlink:href="#DejaVuSans-2e" x="147.412109"/>
       <use xlink:href="#DejaVuSans-35" x="179.199219"/>
      </g>
     </g>
    </g>
    <g id="xtick_3">
     <g id="line2d_5">
      <path d="M 206.55 384.48 
L 206.55 51.84 
" clip-path="url(#p80bdee05c5)" style="fill: none; stroke: #b0b0b0; stroke-width: 0.8; stroke-linecap: square"/>
     </g>
     <g id="line2d_6">
      <g>
       <use xlink:href="#m42b3c401b5" x="206.55" y="384.48" style="stroke: #000000; stroke-width: 0.8"/>
      </g>
     </g>
     <g id="text_3">
      <!-- −1.0 -->
      <g transform="translate(194.408594 399.078438) scale(0.1 -0.1)">
       <use xlink:href="#DejaVuSans-2212"/>
       <use xlink:href="#DejaVuSans-31" x="83.789062"/>
       <use xlink:href="#DejaVuSans-2e" x="147.412109"/>
       <use xlink:href="#DejaVuSans-30" x="179.199219"/>
      </g>
     </g>
    </g>
    <g id="xtick_4">
     <g id="line2d_7">
      <path d="M 269.325 384.48 
L 269.325 51.84 
" clip-path="url(#p80bdee05c5)" style="fill: none; stroke: #b0b0b0; stroke-width: 0.8; stroke-linecap: square"/>
     </g>
     <g id="line2d_8">
      <g>
       <use xlink:href="#m42b3c401b5" x="269.325" y="384.48" style="stroke: #000000; stroke-width: 0.8"/>
      </g>
     </g>
     <g id="text_4">
      <!-- −0.5 -->
      <g transform="translate(257.183594 399.078438) scale(0.1 -0.1)">
       <use xlink:href="#DejaVuSans-2212"/>
       <use xlink:href="#DejaVuSans-30" x="83.789062"/>
       <use xlink:href="#DejaVuSans-2e" x="147.412109"/>
       <use xlink:href="#DejaVuSans-35" x="179.199219"/>
      </g>
     </g>
    </g>
    <g id="xtick_5">
     <g id="line2d_9">
      <path d="M 332.1 384.48 
L 332.1 51.84 
" clip-path="url(#p80bdee05c5)" style="fill: none; stroke: #b0b0b0; stroke-width: 0.8; stroke-linecap: square"/>
     </g>
     <g id="line2d_10">
      <g>
       <use xlink:href="#m42b3c401b5" x="332.1" y="384.48" style="stroke: #000000; stroke-width: 0.8"/>
      </g>
     </g>
     <g id="text_5">
      <!-- 0.0 -->
      <g transform="translate(324.148438 399.078438) scale(0.1 -0.1)">
       <use xlink:href="#DejaVuSans-30"/>
       <use xlink:href="#DejaVuSans-2e" x="63.623047"/>
       <use xlink:href="#DejaVuSans-30" x="95.410156"/>
      </g>
     </g>
    </g>
    <g id="xtick_6">
     <g id="line2d_11">
      <path d="M 394.875 384.48 
L 394.875 51.84 
" clip-path="url(#p80bdee05c5)" style="fill: none; stroke: #b0b0b0; stroke-width: 0.8; stroke-linecap: square"/>
     </g>
     <g id="line2d_12">
      <g>
       <use xlink:href="#m42b3c401b5" x="394.875" y="384.48" style="stroke: #000000; stroke-width: 0.8"/>
      </g>
     </g>
     <g id="text_6">
      <!-- 0.5 -->
      <g transform="translate(386.923437 399.078438) scale(0.1 -0.1)">
       <use xlink:href="#DejaVuSans-30"/>
       <use xlink:href="#DejaVuSans-2e" x="63.623047"/>
       <use xlink:href="#DejaVuSans-35" x="95.410156"/>
      </g>
     </g>
    </g>
    <g id="xtick_7">
     <g id="line2d_13">
      <path d="M 457.65 384.48 
L 457.65 51.84 
" clip-path="url(#p80bdee05c5)" style="fill: none; stroke: #b0b0b0; stroke-width: 0.8; stroke-linecap: square"/>
     </g>
     <g id="line2d_14">
      <g>
       <use xlink:href="#m42b3c401b5" x="457.65" y="384.48" style="stroke: #000000; stroke-width: 0.8"/>
      </g>
     </g>
     <g id="text_7">
      <!-- 1.0 -->
      <g transform="translate(449.698438 399.078438) scale(0.1 -0.1)">
       <use xlink:href="#DejaVuSans-31"/>
       <use xlink:href="#DejaVuSans-2e" x="63.623047"/>
       <use xlink:href="#DejaVuSans-30" x="95.410156"/>
      </g>
     </g>
    </g>
    <g id="xtick_8">
     <g id="line2d_15">
      <path d="M 520.425 384.48 
L 520.425 51.84 
" clip-path="url(#p80bdee05c5)" style="fill: none; stroke: #b0b0b0; stroke-width: 0.8; stroke-linecap: square"/>
     </g>
     <g id="line2d_16">
      <g>
       <use xlink:href="#m42b3c401b5" x="520.425" y="384.48" style="stroke: #000000; stroke-width: 0.8"/>
      </g>
     </g>
     <g id="text_8">
      <!-- 1.5 -->
      <g transform="translate(512.473438 399.078438) scale(0.1 -0.1)">
       <use xlink:href="#DejaVuSans-31"/>
       <use xlink:href="#DejaVuSans-2e" x="63.623047"/>
       <use xlink:href="#DejaVuSans-35" x="95.410156"/>
      </g>
     </g>
    </g>
    <g id="xtick_9">
     <g id="line2d_17">
      <path d="M 583.2 384.48 
L 583.2 51.84 
" clip-path="url(#p80bdee05c5)" style="fill: none; stroke: #b0b0b0; stroke-width: 0.8; stroke-linecap: square"/>
     </g>
     <g id="line2d_18">
      <g>
       <use xlink:href="#m42b3c401b5" x="583.2" y="384.48" style="stroke: #000000; stroke-width: 0.8"/>
      </g>
     </g>
     <g id="text_9">
      <!-- 2.0 -->
      <g transform="translate(575.248438 399.078438) scale(0.1 -0.1)">
       <use xlink:href="#DejaVuSans-32"/>
       <use xlink:href="#DejaVuSans-2e" x="63.623047"/>
       <use xlink:href="#DejaVuSans-30" x="95.410156"/>
      </g>
     </g>
    </g>
    <g id="xtick_10">
     <g id="line2d_19">
      <path d="M 93.555 384.48 
L 93.555 51.84 
" clip-path="url(#p80bdee05c5)" style="fill: none; stroke-dasharray: 0.8,1.32; stroke-dashoffset: 0; stroke: #b0b0b0; stroke-width: 0.8"/>
     </g>
     <g id="line2d_20">
      <defs>
       <path id="m20ac886dd6" d="M 0 0 
L 0 2 
" style="stroke: #000000; stroke-width: 0.6"/>
      </defs>
      <g>
       <use xlink:href="#m20ac886dd6" x="93.555" y="384.48" style="stroke: #000000; stroke-width: 0.6"/>
      </g>
     </g>
    </g>
    <g id="xtick_11">
     <g id="line2d_21">
      <path d="M 106.11 384.48 
L 106.11 51.84 
" clip-path="url(#p80bdee05c5)" style="fill: none; stroke-dasharray: 0.8,1.32; stroke-dashoffset: 0; stroke: #b0b0b0; stroke-width: 0.8"/>
     </g>
     <g id="line2d_22">
      <g>
       <use xlink:href="#m20ac886dd6" x="106.11" y="384.48" style="stroke: #000000; stroke-width: 0.6"/>
      </g>
     </g>
    </g>
    <g id="xtick_12">
     <g id="line2d_23">
      <path d="M 118.665 384.48 
L 118.665 51.84 
" clip-path="url(#p80bdee05c5)" style="fill: none; stroke-dasharray: 0.8,1.32; stroke-dashoffset: 0; stroke: #b0b0b0; stroke-width: 0.8"/>
     </g>
     <g id="line2d_24">
      <g>
       <use xlink:href="#m20ac886dd6" x="118.665" y="384.48" style="stroke: #000000; stroke-width: 0.6"/>
      </g>
     </g>
    </g>
    <g id="xtick_13">
     <g id="line2d_25">
      <path d="M 131.22 384.48 
L 131.22 51.84 
" clip-path="url(#p80bdee05c5)" style="fill: none; stroke-dasharray: 0.8,1.32; stroke-dashoffset: 0; stroke: #b0b0b0; stroke-width: 0.8"/>
     </g>
     <g id="line2d_26">
      <g>
       <use xlink:href="#m20ac886dd6" x="131.22" y="384.48" style="stroke: #000000; stroke-width: 0.6"/>
      </g>
     </g>
    </g>
    <g id="xtick_14">
     <g id="line2d_27">
      <path d="M 156.33 384.48 
L 156.33 51.84 
" clip-path="url(#p80bdee05c5)" style="fill: none; stroke-dasharray: 0.8,1.32; stroke-dashoffset: 0; stroke: #b0b0b0; stroke-width: 0.8"/>
     </g>
     <g id="line2d_28">
      <g>
       <use xlink:href="#m20ac886dd6" x="156.33" y="384.48" style="stroke: #000000; stroke-width: 0.6"/>
      </g>
     </g>
    </g>
    <g id="xtick_15">
     <g id="line2d_29">
      <path d="M 168.885 384.48 
L 168.885 51.84 
" clip-path="url(#p80bdee05c5)" style="fill: none; stroke-dasharray: 0.8,1.32; stroke-dashoffset: 0; stroke: #b0b0b0; stroke-width: 0.8"/>
     </g>
     <g id="line2d_30">
      <g>
       <use xlink:href="#m20ac886dd6" x="168.885" y="384.48" style="stroke: #000000; stroke-width: 0.6"/>
      </g>
     </g>
    </g>
    <g id="xtick_16">
     <g id="line2d_31">
      <path d="M 181.44 384.48 
L 181.44 51.84 
" clip-path="url(#p80bdee05c5)" style="fill: none; stroke-dasharray: 0.8,1.32; stroke-dashoffset: 0; stroke: #b0b0b0; stroke-width: 0.8"/>
     </g>
     <g id="line2d_32">
      <g>
       <use xlink:href="#m20ac886dd6" x="181.44" y="384.48" style="stroke: #000000; stroke-width: 0.6"/>
      </g>
     </g>
    </g>
    <g id="xtick_17">
     <g id="line2d_33">
      <path d="M 193.995 384.48 
L 193.995 51.84 
" clip-path="url(#p80bdee05c5)" style="fill: none; stroke-dasharray: 0.8,1.32; stroke-dashoffset: 0; stroke: #b0b0b0; stroke-width: 0.8"/>
     </g>
     <g id="line2d_34">
      <g>
       <use xlink:href="#m20ac886dd6" x="193.995" y="384.48" style="stroke: #000000; stroke-width: 0.6"/>
      </g>
     </g>
    </g>
    <g id="xtick_18">
     <g id="line2d_35">
      <path d="M 219.105 384.48 
L 219.105 51.84 
" clip-path="url(#p80bdee05c5)" style="fill: none; stroke-dasharray: 0.8,1.32; stroke-dashoffset: 0; stroke: #b0b0b0; stroke-width: 0.8"/>
     </g>
     <g id="line2d_36">
      <g>
       <use xlink:href="#m20ac886dd6" x="219.105" y="384.48" style="stroke: #000000; stroke-width: 0.6"/>
      </g>
     </g>
    </g>
    <g id="xtick_19">
     <g id="line2d_37">
      <path d="M 231.66 384.48 
L 231.66 51.84 
" clip-path="url(#p80bdee05c5)" style="fill: none; stroke-dasharray: 0.8,1.32; stroke-dashoffset: 0; stroke: #b0b0b0; stroke-width: 0.8"/>
     </g>
     <g id="line2d_38">
      <g>
       <use xlink:href="#m20ac886dd6" x="231.66" y="384.48" style="stroke: #000000; stroke-width: 0.6"/>
      </g>
     </g>
    </g>
    <g id="xtick_20">
     <g id="line2d_39">
      <path d="M 244.215 384.48 
L 244.215 51.84 
" clip-path="url(#p80bdee05c5)" style="fill: none; stroke-dasharray: 0.8,1.32; stroke-dashoffset: 0; stroke: #b0b0b0; stroke-width: 0.8"/>
     </g>
     <g id="line2d_40">
      <g>
       <use xlink:href="#m20ac886dd6" x="244.215" y="384.48" style="stroke: #000000; stroke-width: 0.6"/>
      </g>
     </g>
    </g>
    <g id="xtick_21">
     <g id="line2d_41">
      <path d="M 256.77 384.48 
L 256.77 51.84 
" clip-path="url(#p80bdee05c5)" style="fill: none; stroke-dasharray: 0.8,1.32; stroke-dashoffset: 0; stroke: #b0b0b0; stroke-width: 0.8"/>
     </g>
     <g id="line2d_42">
      <g>
       <use xlink:href="#m20ac886dd6" x="256.77" y="384.48" style="stroke: #000000; stroke-width: 0.6"/>
      </g>
     </g>
    </g>
    <g id="xtick_22">
     <g id="line2d_43">
      <path d="M 281.88 384.48 
L 281.88 51.84 
" clip-path="url(#p80bdee05c5)" style="fill: none; stroke-dasharray: 0.8,1.32; stroke-dashoffset: 0; stroke: #b0b0b0; stroke-width: 0.8"/>
     </g>
     <g id="line2d_44">
      <g>
       <use xlink:href="#m20ac886dd6" x="281.88" y="384.48" style="stroke: #000000; stroke-width: 0.6"/>
      </g>
     </g>
    </g>
    <g id="xtick_23">
     <g id="line2d_45">
      <path d="M 294.435 384.48 
L 294.435 51.84 
" clip-path="url(#p80bdee05c5)" style="fill: none; stroke-dasharray: 0.8,1.32; stroke-dashoffset: 0; stroke: #b0b0b0; stroke-width: 0.8"/>
     </g>
     <g id="line2d_46">
      <g>
       <use xlink:href="#m20ac886dd6" x="294.435" y="384.48" style="stroke: #000000; stroke-width: 0.6"/>
      </g>
     </g>
    </g>
    <g id="xtick_24">
     <g id="line2d_47">
      <path d="M 306.99 384.48 
L 306.99 51.84 
" clip-path="url(#p80bdee05c5)" style="fill: none; stroke-dasharray: 0.8,1.32; stroke-dashoffset: 0; stroke: #b0b0b0; stroke-width: 0.8"/>
     </g>
     <g id="line2d_48">
      <g>
       <use xlink:href="#m20ac886dd6" x="306.99" y="384.48" style="stroke: #000000; stroke-width: 0.6"/>
      </g>
     </g>
    </g>
    <g id="xtick_25">
     <g id="line2d_49">
      <path d="M 319.545 384.48 
L 319.545 51.84 
" clip-path="url(#p80bdee05c5)" style="fill: none; stroke-dasharray: 0.8,1.32; stroke-dashoffset: 0; stroke: #b0b0b0; stroke-width: 0.8"/>
     </g>
     <g id="line2d_50">
      <g>
       <use xlink:href="#m20ac886dd6" x="319.545" y="384.48" style="stroke: #000000; stroke-width: 0.6"/>
      </g>
     </g>
    </g>
    <g id="xtick_26">
     <g id="line2d_51">
      <path d="M 344.655 384.48 
L 344.655 51.84 
" clip-path="url(#p80bdee05c5)" style="fill: none; stroke-dasharray: 0.8,1.32; stroke-dashoffset: 0; stroke: #b0b0b0; stroke-width: 0.8"/>
     </g>
     <g id="line2d_52">
      <g>
       <use xlink:href="#m20ac886dd6" x="344.655" y="384.48" style="stroke: #000000; stroke-width: 0.6"/>
      </g>
     </g>
    </g>
    <g id="xtick_27">
     <g id="line2d_53">
      <path d="M 357.21 384.48 
L 357.21 51.84 
" clip-path="url(#p80bdee05c5)" style="fill: none; stroke-dasharray: 0.8,1.32; stroke-dashoffset: 0; stroke: #b0b0b0; stroke-width: 0.8"/>
     </g>
     <g id="line2d_54">
      <g>
       <use xlink:href="#m20ac886dd6" x="357.21" y="384.48" style="stroke: #000000; stroke-width: 0.6"/>
      </g>
     </g>
    </g>
    <g id="xtick_28">
     <g id="line2d_55">
      <path d="M 369.765 384.48 
L 369.765 51.84 
" clip-path="url(#p80bdee05c5)" style="fill: none; stroke-dasharray: 0.8,1.32; stroke-dashoffset: 0; stroke: #b0b0b0; stroke-width: 0.8"/>
     </g>
     <g id="line2d_56">
      <g>
       <use xlink:href="#m20ac886dd6" x="369.765" y="384.48" style="stroke: #000000; stroke-width: 0.6"/>
      </g>
     </g>
    </g>
    <g id="xtick_29">
     <g id="line2d_57">
      <path d="M 382.32 384.48 
L 382.32 51.84 
" clip-path="url(#p80bdee05c5)" style="fill: none; stroke-dasharray: 0.8,1.32; stroke-dashoffset: 0; stroke: #b0b0b0; stroke-width: 0.8"/>
     </g>
     <g id="line2d_58">
      <g>
       <use xlink:href="#m20ac886dd6" x="382.32" y="384.48" style="stroke: #000000; stroke-width: 0.6"/>
      </g>
     </g>
    </g>
    <g id="xtick_30">
     <g id="line2d_59">
      <path d="M 407.43 384.48 
L 407.43 51.84 
" clip-path="url(#p80bdee05c5)" style="fill: none; stroke-dasharray: 0.8,1.32; stroke-dashoffset: 0; stroke: #b0b0b0; stroke-width: 0.8"/>
     </g>
     <g id="line2d_60">
      <g>
       <use xlink:href="#m20ac886dd6" x="407.43" y="384.48" style="stroke: #000000; stroke-width: 0.6"/>
      </g>
     </g>
    </g>
    <g id="xtick_31">
     <g id="line2d_61">
      <path d="M 419.985 384.48 
L 419.985 51.84 
" clip-path="url(#p80bdee05c5)" style="fill: none; stroke-dasharray: 0.8,1.32; stroke-dashoffset: 0; stroke: #b0b0b0; stroke-width: 0.8"/>
     </g>
     <g id="line2d_62">
      <g>
       <use xlink:href="#m20ac886dd6" x="419.985" y="384.48" style="stroke: #000000; stroke-width: 0.6"/>
      </g>
     </g>
    </g>
    <g id="xtick_32">
     <g id="line2d_63">
      <path d="M 432.54 384.48 
L 432.54 51.84 
" clip-path="url(#p80bdee05c5)" style="fill: none; stroke-dasharray: 0.8,1.32; stroke-dashoffset: 0; stroke: #b0b0b0; stroke-width: 0.8"/>
     </g>
     <g id="line2d_64">
      <g>
       <use xlink:href="#m20ac886dd6" x="432.54" y="384.48" style="stroke: #000000; stroke-width: 0.6"/>
      </g>
     </g>
    </g>
    <g id="xtick_33">
     <g id="line2d_65">
      <path d="M 445.095 384.48 
L 445.095 51.84 
" clip-path="url(#p80bdee05c5)" style="fill: none; stroke-dasharray: 0.8,1.32; stroke-dashoffset: 0; stroke: #b0b0b0; stroke-width: 0.8"/>
     </g>
     <g id="line2d_66">
      <g>
       <use xlink:href="#m20ac886dd6" x="445.095" y="384.48" style="stroke: #000000; stroke-width: 0.6"/>
      </g>
     </g>
    </g>
    <g id="xtick_34">
     <g id="line2d_67">
      <path d="M 470.205 384.48 
L 470.205 51.84 
" clip-path="url(#p80bdee05c5)" style="fill: none; stroke-dasharray: 0.8,1.32; stroke-dashoffset: 0; stroke: #b0b0b0; stroke-width: 0.8"/>
     </g>
     <g id="line2d_68">
      <g>
       <use xlink:href="#m20ac886dd6" x="470.205" y="384.48" style="stroke: #000000; stroke-width: 0.6"/>
      </g>
     </g>
    </g>
    <g id="xtick_35">
     <g id="line2d_69">
      <path d="M 482.76 384.48 
L 482.76 51.84 
" clip-path="url(#p80bdee05c5)" style="fill: none; stroke-dasharray: 0.8,1.32; stroke-dashoffset: 0; stroke: #b0b0b0; stroke-width: 0.8"/>
     </g>
     <g id="line2d_70">
      <g>
       <use xlink:href="#m20ac886dd6" x="482.76" y="384.48" style="stroke: #000000; stroke-width: 0.6"/>
      </g>
     </g>
    </g>
    <g id="xtick_36">
     <g id="line2d_71">
      <path d="M 495.315 384.48 
L 495.315 51.84 
" clip-path="url(#p80bdee05c5)" style="fill: none; stroke-dasharray: 0.8,1.32; stroke-dashoffset: 0; stroke: #b0b0b0; stroke-width: 0.8"/>
     </g>
     <g id="line2d_72">
      <g>
       <use xlink:href="#m20ac886dd6" x="495.315" y="384.48" style="stroke: #000000; stroke-width: 0.6"/>
      </g>
     </g>
    </g>
    <g id="xtick_37">
     <g id="line2d_73">
      <path d="M 507.87 384.48 
L 507.87 51.84 
" clip-path="url(#p80bdee05c5)" style="fill: none; stroke-dasharray: 0.8,1.32; stroke-dashoffset: 0; stroke: #b0b0b0; stroke-width: 0.8"/>
     </g>
     <g id="line2d_74">
      <g>
       <use xlink:href="#m20ac886dd6" x="507.87" y="384.48" style="stroke: #000000; stroke-width: 0.6"/>
      </g>
     </g>
    </g>
    <g id="xtick_38">
     <g id="line2d_75">
      <path d="M 532.98 384.48 
L 532.98 51.84 
" clip-path="url(#p80bdee05c5)" style="fill: none; stroke-dasharray: 0.8,1.32; stroke-dashoffset: 0; stroke: #b0b0b0; stroke-width: 0.8"/>
     </g>
     <g id="line2d_76">
      <g>
       <use xlink:href="#m20ac886dd6" x="532.98" y="384.48" style="stroke: #000000; stroke-width: 0.6"/>
      </g>
     </g>
    </g>
    <g id="xtick_39">
     <g id="line2d_77">
      <path d="M 545.535 384.48 
L 545.535 51.84 
" clip-path="url(#p80bdee05c5)" style="fill: none; stroke-dasharray: 0.8,1.32; stroke-dashoffset: 0; stroke: #b0b0b0; stroke-width: 0.8"/>
     </g>
     <g id="line2d_78">
      <g>
       <use xlink:href="#m20ac886dd6" x="545.535" y="384.48" style="stroke: #000000; stroke-width: 0.6"/>
      </g>
     </g>
    </g>
    <g id="xtick_40">
     <g id="line2d_79">
      <path d="M 558.09 384.48 
L 558.09 51.84 
" clip-path="url(#p80bdee05c5)" style="fill: none; stroke-dasharray: 0.8,1.32; stroke-dashoffset: 0; stroke: #b0b0b0; stroke-width: 0.8"/>
     </g>
     <g id="line2d_80">
      <g>
       <use xlink:href="#m20ac886dd6" x="558.09" y="384.48" style="stroke: #000000; stroke-width: 0.6"/>
      </g>
     </g>
    </g>
    <g id="xtick_41">
     <g id="line2d_81">
      <path d="M 570.645 384.48 
L 570.645 51.84 
" clip-path="url(#p80bdee05c5)" style="fill: none; stroke-dasharray: 0.8,1.32; stroke-dashoffset: 0; stroke: #b0b0b0; stroke-width: 0.8"/>
     </g>
     <g id="line2d_82">
      <g>
       <use xlink:href="#m20ac886dd6" x="570.645" y="384.48" style="stroke: #000000; stroke-width: 0.6"/>
      </g>
     </g>
    </g>
    <g id="text_10">
     <!-- Расстояние от трубки Пито до центра струи [мм] -->
     <g transform="translate(201.567188 412.926875) scale(0.1 -0.1)">
      <defs>
       <path id="DejaVuSans-420" d="M 1259 4147 
L 1259 2394 
L 2053 2394 
Q 2494 2394 2734 2622 
Q 2975 2850 2975 3272 
Q 2975 3691 2734 3919 
Q 2494 4147 2053 4147 
L 1259 4147 
z
M 628 4666 
L 2053 4666 
Q 2838 4666 3239 4311 
Q 3641 3956 3641 3272 
Q 3641 2581 3239 2228 
Q 2838 1875 2053 1875 
L 1259 1875 
L 1259 0 
L 628 0 
L 628 4666 
z
" transform="scale(0.015625)"/>
       <path id="DejaVuSans-430" d="M 2194 1759 
Q 1497 1759 1228 1600 
Q 959 1441 959 1056 
Q 959 750 1161 570 
Q 1363 391 1709 391 
Q 2188 391 2477 730 
Q 2766 1069 2766 1631 
L 2766 1759 
L 2194 1759 
z
M 3341 1997 
L 3341 0 
L 2766 0 
L 2766 531 
Q 2569 213 2275 61 
Q 1981 -91 1556 -91 
Q 1019 -91 701 211 
Q 384 513 384 1019 
Q 384 1609 779 1909 
Q 1175 2209 1959 2209 
L 2766 2209 
L 2766 2266 
Q 2766 2663 2505 2880 
Q 2244 3097 1772 3097 
Q 1472 3097 1187 3025 
Q 903 2953 641 2809 
L 641 3341 
Q 956 3463 1253 3523 
Q 1550 3584 1831 3584 
Q 2591 3584 2966 3190 
Q 3341 2797 3341 1997 
z
" transform="scale(0.015625)"/>
       <path id="DejaVuSans-441" d="M 3122 3366 
L 3122 2828 
Q 2878 2963 2633 3030 
Q 2388 3097 2138 3097 
Q 1578 3097 1268 2742 
Q 959 2388 959 1747 
Q 959 1106 1268 751 
Q 1578 397 2138 397 
Q 2388 397 2633 464 
Q 2878 531 3122 666 
L 3122 134 
Q 2881 22 2623 -34 
Q 2366 -91 2075 -91 
Q 1284 -91 818 406 
Q 353 903 353 1747 
Q 353 2603 823 3093 
Q 1294 3584 2113 3584 
Q 2378 3584 2631 3529 
Q 2884 3475 3122 3366 
z
" transform="scale(0.015625)"/>
       <path id="DejaVuSans-442" d="M 188 3500 
L 3541 3500 
L 3541 3041 
L 2147 3041 
L 2147 0 
L 1581 0 
L 1581 3041 
L 188 3041 
L 188 3500 
z
" transform="scale(0.015625)"/>
       <path id="DejaVuSans-43e" d="M 1959 3097 
Q 1497 3097 1228 2736 
Q 959 2375 959 1747 
Q 959 1119 1226 758 
Q 1494 397 1959 397 
Q 2419 397 2687 759 
Q 2956 1122 2956 1747 
Q 2956 2369 2687 2733 
Q 2419 3097 1959 3097 
z
M 1959 3584 
Q 2709 3584 3137 3096 
Q 3566 2609 3566 1747 
Q 3566 888 3137 398 
Q 2709 -91 1959 -91 
Q 1206 -91 779 398 
Q 353 888 353 1747 
Q 353 2609 779 3096 
Q 1206 3584 1959 3584 
z
" transform="scale(0.015625)"/>
       <path id="DejaVuSans-44f" d="M 1181 2491 
Q 1181 2231 1381 2084 
Q 1581 1938 1953 1938 
L 2728 1938 
L 2728 3041 
L 1953 3041 
Q 1581 3041 1381 2897 
Q 1181 2753 1181 2491 
z
M 363 0 
L 1431 1534 
Q 1069 1616 828 1830 
Q 588 2044 588 2491 
Q 588 2997 923 3248 
Q 1259 3500 1938 3500 
L 3306 3500 
L 3306 0 
L 2728 0 
L 2728 1478 
L 2013 1478 
L 981 0 
L 363 0 
z
" transform="scale(0.015625)"/>
       <path id="DejaVuSans-43d" d="M 581 3500 
L 1159 3500 
L 1159 2072 
L 3025 2072 
L 3025 3500 
L 3603 3500 
L 3603 0 
L 3025 0 
L 3025 1613 
L 1159 1613 
L 1159 0 
L 581 0 
L 581 3500 
z
" transform="scale(0.015625)"/>
       <path id="DejaVuSans-438" d="M 3578 3500 
L 3578 0 
L 3006 0 
L 3006 2809 
L 1319 0 
L 581 0 
L 581 3500 
L 1153 3500 
L 1153 697 
L 2838 3500 
L 3578 3500 
z
" transform="scale(0.015625)"/>
       <path id="DejaVuSans-435" d="M 3597 1894 
L 3597 1613 
L 953 1613 
Q 991 1019 1311 708 
Q 1631 397 2203 397 
Q 2534 397 2845 478 
Q 3156 559 3463 722 
L 3463 178 
Q 3153 47 2828 -22 
Q 2503 -91 2169 -91 
Q 1331 -91 842 396 
Q 353 884 353 1716 
Q 353 2575 817 3079 
Q 1281 3584 2069 3584 
Q 2775 3584 3186 3129 
Q 3597 2675 3597 1894 
z
M 3022 2063 
Q 3016 2534 2758 2815 
Q 2500 3097 2075 3097 
Q 1594 3097 1305 2825 
Q 1016 2553 972 2059 
L 3022 2063 
z
" transform="scale(0.015625)"/>
       <path id="DejaVuSans-20" transform="scale(0.015625)"/>
       <path id="DejaVuSans-440" d="M 1159 525 
L 1159 -1331 
L 581 -1331 
L 581 3500 
L 1159 3500 
L 1159 2969 
Q 1341 3281 1617 3432 
Q 1894 3584 2278 3584 
Q 2916 3584 3314 3078 
Q 3713 2572 3713 1747 
Q 3713 922 3314 415 
Q 2916 -91 2278 -91 
Q 1894 -91 1617 61 
Q 1341 213 1159 525 
z
M 3116 1747 
Q 3116 2381 2855 2742 
Q 2594 3103 2138 3103 
Q 1681 3103 1420 2742 
Q 1159 2381 1159 1747 
Q 1159 1113 1420 752 
Q 1681 391 2138 391 
Q 2594 391 2855 752 
Q 3116 1113 3116 1747 
z
" transform="scale(0.015625)"/>
       <path id="DejaVuSans-443" d="M 2059 -325 
Q 1816 -950 1584 -1140 
Q 1353 -1331 966 -1331 
L 506 -1331 
L 506 -850 
L 844 -850 
Q 1081 -850 1212 -737 
Q 1344 -625 1503 -206 
L 1606 56 
L 191 3500 
L 800 3500 
L 1894 763 
L 2988 3500 
L 3597 3500 
L 2059 -325 
z
" transform="scale(0.015625)"/>
       <path id="DejaVuSans-431" d="M 1991 3584 
Q 2741 3584 3169 3096 
Q 3597 2609 3597 1747 
Q 3597 888 3169 398 
Q 2741 -91 1991 -91 
Q 1238 -91 822 384 
Q 406 859 384 1747 
L 366 2463 
Q 350 2834 350 2963 
Q 350 3463 531 3831 
Q 816 4409 1308 4659 
Q 1800 4909 2625 4916 
Q 3006 4919 3175 4972 
L 3334 4516 
Q 3181 4453 3041 4450 
L 2259 4397 
Q 1866 4369 1628 4231 
Q 1006 3866 947 3388 
L 925 3213 
Q 1331 3584 1991 3584 
z
M 1991 3097 
Q 1528 3097 1259 2736 
Q 991 2375 991 1747 
Q 991 1119 1258 758 
Q 1525 397 1991 397 
Q 2450 397 2719 759 
Q 2988 1122 2988 1747 
Q 2988 2369 2719 2733 
Q 2450 3097 1991 3097 
z
" transform="scale(0.015625)"/>
       <path id="DejaVuSans-43a" d="M 581 3500 
L 1153 3500 
L 1153 1856 
L 2775 3500 
L 3481 3500 
L 2144 2147 
L 3653 0 
L 3009 0 
L 1769 1766 
L 1153 1141 
L 1153 0 
L 581 0 
L 581 3500 
z
" transform="scale(0.015625)"/>
       <path id="DejaVuSans-41f" d="M 4184 4666 
L 4184 0 
L 3553 0 
L 3553 4134 
L 1259 4134 
L 1259 0 
L 628 0 
L 628 4666 
L 4184 4666 
z
" transform="scale(0.015625)"/>
       <path id="DejaVuSans-434" d="M 1384 459 
L 3053 459 
L 3053 3041 
L 1844 3041 
L 1844 2603 
Q 1844 1316 1475 628 
L 1384 459 
z
M 550 459 
Q 834 584 959 850 
Q 1266 1509 1266 2838 
L 1266 3500 
L 3631 3500 
L 3631 459 
L 4091 459 
L 4091 -884 
L 3631 -884 
L 3631 0 
L 794 0 
L 794 -884 
L 334 -884 
L 334 459 
L 550 459 
z
" transform="scale(0.015625)"/>
       <path id="DejaVuSans-446" d="M 3603 0 
L 581 0 
L 581 3500 
L 1159 3500 
L 1159 459 
L 3025 459 
L 3025 3500 
L 3603 3500 
L 3603 459 
L 4063 459 
L 4063 -884 
L 3603 -884 
L 3603 0 
z
" transform="scale(0.015625)"/>
       <path id="DejaVuSans-5b" d="M 550 4863 
L 1875 4863 
L 1875 4416 
L 1125 4416 
L 1125 -397 
L 1875 -397 
L 1875 -844 
L 550 -844 
L 550 4863 
z
" transform="scale(0.015625)"/>
       <path id="DejaVuSans-43c" d="M 581 3500 
L 1422 3500 
L 2416 1156 
L 3413 3500 
L 4247 3500 
L 4247 0 
L 3669 0 
L 3669 2950 
L 2703 672 
L 2128 672 
L 1159 2950 
L 1159 0 
L 581 0 
L 581 3500 
z
" transform="scale(0.015625)"/>
       <path id="DejaVuSans-5d" d="M 1947 4863 
L 1947 -844 
L 622 -844 
L 622 -397 
L 1369 -397 
L 1369 4416 
L 622 4416 
L 622 4863 
L 1947 4863 
z
" transform="scale(0.015625)"/>
      </defs>
      <use xlink:href="#DejaVuSans-420"/>
      <use xlink:href="#DejaVuSans-430" x="60.302734"/>
      <use xlink:href="#DejaVuSans-441" x="121.582031"/>
      <use xlink:href="#DejaVuSans-441" x="176.5625"/>
      <use xlink:href="#DejaVuSans-442" x="231.542969"/>
      <use xlink:href="#DejaVuSans-43e" x="289.794922"/>
      <use xlink:href="#DejaVuSans-44f" x="350.976562"/>
      <use xlink:href="#DejaVuSans-43d" x="411.132812"/>
      <use xlink:href="#DejaVuSans-438" x="476.513672"/>
      <use xlink:href="#DejaVuSans-435" x="541.503906"/>
      <use xlink:href="#DejaVuSans-20" x="603.027344"/>
      <use xlink:href="#DejaVuSans-43e" x="634.814453"/>
      <use xlink:href="#DejaVuSans-442" x="695.996094"/>
      <use xlink:href="#DejaVuSans-20" x="754.248047"/>
      <use xlink:href="#DejaVuSans-442" x="786.035156"/>
      <use xlink:href="#DejaVuSans-440" x="844.287109"/>
      <use xlink:href="#DejaVuSans-443" x="907.763672"/>
      <use xlink:href="#DejaVuSans-431" x="966.943359"/>
      <use xlink:href="#DejaVuSans-43a" x="1028.613281"/>
      <use xlink:href="#DejaVuSans-438" x="1089.013672"/>
      <use xlink:href="#DejaVuSans-20" x="1154.003906"/>
      <use xlink:href="#DejaVuSans-41f" x="1185.791016"/>
      <use xlink:href="#DejaVuSans-438" x="1260.986328"/>
      <use xlink:href="#DejaVuSans-442" x="1325.976562"/>
      <use xlink:href="#DejaVuSans-43e" x="1384.228516"/>
      <use xlink:href="#DejaVuSans-20" x="1445.410156"/>
      <use xlink:href="#DejaVuSans-434" x="1477.197266"/>
      <use xlink:href="#DejaVuSans-43e" x="1546.337891"/>
      <use xlink:href="#DejaVuSans-20" x="1607.519531"/>
      <use xlink:href="#DejaVuSans-446" x="1639.306641"/>
      <use xlink:href="#DejaVuSans-435" x="1707.373047"/>
      <use xlink:href="#DejaVuSans-43d" x="1768.896484"/>
      <use xlink:href="#DejaVuSans-442" x="1834.277344"/>
      <use xlink:href="#DejaVuSans-440" x="1892.529297"/>
      <use xlink:href="#DejaVuSans-430" x="1956.005859"/>
      <use xlink:href="#DejaVuSans-20" x="2017.285156"/>
      <use xlink:href="#DejaVuSans-441" x="2049.072266"/>
      <use xlink:href="#DejaVuSans-442" x="2104.052734"/>
      <use xlink:href="#DejaVuSans-440" x="2162.304688"/>
      <use xlink:href="#DejaVuSans-443" x="2225.78125"/>
      <use xlink:href="#DejaVuSans-438" x="2284.960938"/>
      <use xlink:href="#DejaVuSans-20" x="2349.951172"/>
      <use xlink:href="#DejaVuSans-5b" x="2381.738281"/>
      <use xlink:href="#DejaVuSans-43c" x="2420.751953"/>
      <use xlink:href="#DejaVuSans-43c" x="2496.191406"/>
      <use xlink:href="#DejaVuSans-5d" x="2571.630859"/>
     </g>
    </g>
   </g>
   <g id="matplotlib.axis_2">
    <g id="ytick_1">
     <g id="line2d_83">
      <path d="M 81 369.36 
L 583.2 369.36 
" clip-path="url(#p80bdee05c5)" style="fill: none; stroke: #b0b0b0; stroke-width: 0.8; stroke-linecap: square"/>
     </g>
     <g id="line2d_84">
      <defs>
       <path id="m01d7fbb057" d="M 0 0 
L -3.5 0 
" style="stroke: #000000; stroke-width: 0.8"/>
      </defs>
      <g>
       <use xlink:href="#m01d7fbb057" x="81" y="369.36" style="stroke: #000000; stroke-width: 0.8"/>
      </g>
     </g>
     <g id="text_11">
      <!-- 0 -->
      <g transform="translate(67.6375 373.159219) scale(0.1 -0.1)">
       <use xlink:href="#DejaVuSans-30"/>
      </g>
     </g>
    </g>
    <g id="ytick_2">
     <g id="line2d_85">
      <path d="M 81 313.220569 
L 583.2 313.220569 
" clip-path="url(#p80bdee05c5)" style="fill: none; stroke: #b0b0b0; stroke-width: 0.8; stroke-linecap: square"/>
     </g>
     <g id="line2d_86">
      <g>
       <use xlink:href="#m01d7fbb057" x="81" y="313.220569" style="stroke: #000000; stroke-width: 0.8"/>
      </g>
     </g>
     <g id="text_12">
      <!-- 5 -->
      <g transform="translate(67.6375 317.019788) scale(0.1 -0.1)">
       <use xlink:href="#DejaVuSans-35"/>
      </g>
     </g>
    </g>
    <g id="ytick_3">
     <g id="line2d_87">
      <path d="M 81 257.081138 
L 583.2 257.081138 
" clip-path="url(#p80bdee05c5)" style="fill: none; stroke: #b0b0b0; stroke-width: 0.8; stroke-linecap: square"/>
     </g>
     <g id="line2d_88">
      <g>
       <use xlink:href="#m01d7fbb057" x="81" y="257.081138" style="stroke: #000000; stroke-width: 0.8"/>
      </g>
     </g>
     <g id="text_13">
      <!-- 10 -->
      <g transform="translate(61.275 260.880357) scale(0.1 -0.1)">
       <use xlink:href="#DejaVuSans-31"/>
       <use xlink:href="#DejaVuSans-30" x="63.623047"/>
      </g>
     </g>
    </g>
    <g id="ytick_4">
     <g id="line2d_89">
      <path d="M 81 200.941708 
L 583.2 200.941708 
" clip-path="url(#p80bdee05c5)" style="fill: none; stroke: #b0b0b0; stroke-width: 0.8; stroke-linecap: square"/>
     </g>
     <g id="line2d_90">
      <g>
       <use xlink:href="#m01d7fbb057" x="81" y="200.941708" style="stroke: #000000; stroke-width: 0.8"/>
      </g>
     </g>
     <g id="text_14">
      <!-- 15 -->
      <g transform="translate(61.275 204.740926) scale(0.1 -0.1)">
       <use xlink:href="#DejaVuSans-31"/>
       <use xlink:href="#DejaVuSans-35" x="63.623047"/>
      </g>
     </g>
    </g>
    <g id="ytick_5">
     <g id="line2d_91">
      <path d="M 81 144.802277 
L 583.2 144.802277 
" clip-path="url(#p80bdee05c5)" style="fill: none; stroke: #b0b0b0; stroke-width: 0.8; stroke-linecap: square"/>
     </g>
     <g id="line2d_92">
      <g>
       <use xlink:href="#m01d7fbb057" x="81" y="144.802277" style="stroke: #000000; stroke-width: 0.8"/>
      </g>
     </g>
     <g id="text_15">
      <!-- 20 -->
      <g transform="translate(61.275 148.601496) scale(0.1 -0.1)">
       <use xlink:href="#DejaVuSans-32"/>
       <use xlink:href="#DejaVuSans-30" x="63.623047"/>
      </g>
     </g>
    </g>
    <g id="ytick_6">
     <g id="line2d_93">
      <path d="M 81 88.662846 
L 583.2 88.662846 
" clip-path="url(#p80bdee05c5)" style="fill: none; stroke: #b0b0b0; stroke-width: 0.8; stroke-linecap: square"/>
     </g>
     <g id="line2d_94">
      <g>
       <use xlink:href="#m01d7fbb057" x="81" y="88.662846" style="stroke: #000000; stroke-width: 0.8"/>
      </g>
     </g>
     <g id="text_16">
      <!-- 25 -->
      <g transform="translate(61.275 92.462065) scale(0.1 -0.1)">
       <use xlink:href="#DejaVuSans-32"/>
       <use xlink:href="#DejaVuSans-35" x="63.623047"/>
      </g>
     </g>
    </g>
    <g id="ytick_7">
     <g id="line2d_95">
      <path d="M 81 380.587886 
L 583.2 380.587886 
" clip-path="url(#p80bdee05c5)" style="fill: none; stroke-dasharray: 0.8,1.32; stroke-dashoffset: 0; stroke: #b0b0b0; stroke-width: 0.8"/>
     </g>
     <g id="line2d_96">
      <defs>
       <path id="m75736af82c" d="M 0 0 
L -2 0 
" style="stroke: #000000; stroke-width: 0.6"/>
      </defs>
      <g>
       <use xlink:href="#m75736af82c" x="81" y="380.587886" style="stroke: #000000; stroke-width: 0.6"/>
      </g>
     </g>
    </g>
    <g id="ytick_8">
     <g id="line2d_97">
      <path d="M 81 358.132114 
L 583.2 358.132114 
" clip-path="url(#p80bdee05c5)" style="fill: none; stroke-dasharray: 0.8,1.32; stroke-dashoffset: 0; stroke: #b0b0b0; stroke-width: 0.8"/>
     </g>
     <g id="line2d_98">
      <g>
       <use xlink:href="#m75736af82c" x="81" y="358.132114" style="stroke: #000000; stroke-width: 0.6"/>
      </g>
     </g>
    </g>
    <g id="ytick_9">
     <g id="line2d_99">
      <path d="M 81 346.904228 
L 583.2 346.904228 
" clip-path="url(#p80bdee05c5)" style="fill: none; stroke-dasharray: 0.8,1.32; stroke-dashoffset: 0; stroke: #b0b0b0; stroke-width: 0.8"/>
     </g>
     <g id="line2d_100">
      <g>
       <use xlink:href="#m75736af82c" x="81" y="346.904228" style="stroke: #000000; stroke-width: 0.6"/>
      </g>
     </g>
    </g>
    <g id="ytick_10">
     <g id="line2d_101">
      <path d="M 81 335.676342 
L 583.2 335.676342 
" clip-path="url(#p80bdee05c5)" style="fill: none; stroke-dasharray: 0.8,1.32; stroke-dashoffset: 0; stroke: #b0b0b0; stroke-width: 0.8"/>
     </g>
     <g id="line2d_102">
      <g>
       <use xlink:href="#m75736af82c" x="81" y="335.676342" style="stroke: #000000; stroke-width: 0.6"/>
      </g>
     </g>
    </g>
    <g id="ytick_11">
     <g id="line2d_103">
      <path d="M 81 324.448455 
L 583.2 324.448455 
" clip-path="url(#p80bdee05c5)" style="fill: none; stroke-dasharray: 0.8,1.32; stroke-dashoffset: 0; stroke: #b0b0b0; stroke-width: 0.8"/>
     </g>
     <g id="line2d_104">
      <g>
       <use xlink:href="#m75736af82c" x="81" y="324.448455" style="stroke: #000000; stroke-width: 0.6"/>
      </g>
     </g>
    </g>
    <g id="ytick_12">
     <g id="line2d_105">
      <path d="M 81 301.992683 
L 583.2 301.992683 
" clip-path="url(#p80bdee05c5)" style="fill: none; stroke-dasharray: 0.8,1.32; stroke-dashoffset: 0; stroke: #b0b0b0; stroke-width: 0.8"/>
     </g>
     <g id="line2d_106">
      <g>
       <use xlink:href="#m75736af82c" x="81" y="301.992683" style="stroke: #000000; stroke-width: 0.6"/>
      </g>
     </g>
    </g>
    <g id="ytick_13">
     <g id="line2d_107">
      <path d="M 81 290.764797 
L 583.2 290.764797 
" clip-path="url(#p80bdee05c5)" style="fill: none; stroke-dasharray: 0.8,1.32; stroke-dashoffset: 0; stroke: #b0b0b0; stroke-width: 0.8"/>
     </g>
     <g id="line2d_108">
      <g>
       <use xlink:href="#m75736af82c" x="81" y="290.764797" style="stroke: #000000; stroke-width: 0.6"/>
      </g>
     </g>
    </g>
    <g id="ytick_14">
     <g id="line2d_109">
      <path d="M 81 279.536911 
L 583.2 279.536911 
" clip-path="url(#p80bdee05c5)" style="fill: none; stroke-dasharray: 0.8,1.32; stroke-dashoffset: 0; stroke: #b0b0b0; stroke-width: 0.8"/>
     </g>
     <g id="line2d_110">
      <g>
       <use xlink:href="#m75736af82c" x="81" y="279.536911" style="stroke: #000000; stroke-width: 0.6"/>
      </g>
     </g>
    </g>
    <g id="ytick_15">
     <g id="line2d_111">
      <path d="M 81 268.309025 
L 583.2 268.309025 
" clip-path="url(#p80bdee05c5)" style="fill: none; stroke-dasharray: 0.8,1.32; stroke-dashoffset: 0; stroke: #b0b0b0; stroke-width: 0.8"/>
     </g>
     <g id="line2d_112">
      <g>
       <use xlink:href="#m75736af82c" x="81" y="268.309025" style="stroke: #000000; stroke-width: 0.6"/>
      </g>
     </g>
    </g>
    <g id="ytick_16">
     <g id="line2d_113">
      <path d="M 81 245.853252 
L 583.2 245.853252 
" clip-path="url(#p80bdee05c5)" style="fill: none; stroke-dasharray: 0.8,1.32; stroke-dashoffset: 0; stroke: #b0b0b0; stroke-width: 0.8"/>
     </g>
     <g id="line2d_114">
      <g>
       <use xlink:href="#m75736af82c" x="81" y="245.853252" style="stroke: #000000; stroke-width: 0.6"/>
      </g>
     </g>
    </g>
    <g id="ytick_17">
     <g id="line2d_115">
      <path d="M 81 234.625366 
L 583.2 234.625366 
" clip-path="url(#p80bdee05c5)" style="fill: none; stroke-dasharray: 0.8,1.32; stroke-dashoffset: 0; stroke: #b0b0b0; stroke-width: 0.8"/>
     </g>
     <g id="line2d_116">
      <g>
       <use xlink:href="#m75736af82c" x="81" y="234.625366" style="stroke: #000000; stroke-width: 0.6"/>
      </g>
     </g>
    </g>
    <g id="ytick_18">
     <g id="line2d_117">
      <path d="M 81 223.39748 
L 583.2 223.39748 
" clip-path="url(#p80bdee05c5)" style="fill: none; stroke-dasharray: 0.8,1.32; stroke-dashoffset: 0; stroke: #b0b0b0; stroke-width: 0.8"/>
     </g>
     <g id="line2d_118">
      <g>
       <use xlink:href="#m75736af82c" x="81" y="223.39748" style="stroke: #000000; stroke-width: 0.6"/>
      </g>
     </g>
    </g>
    <g id="ytick_19">
     <g id="line2d_119">
      <path d="M 81 212.169594 
L 583.2 212.169594 
" clip-path="url(#p80bdee05c5)" style="fill: none; stroke-dasharray: 0.8,1.32; stroke-dashoffset: 0; stroke: #b0b0b0; stroke-width: 0.8"/>
     </g>
     <g id="line2d_120">
      <g>
       <use xlink:href="#m75736af82c" x="81" y="212.169594" style="stroke: #000000; stroke-width: 0.6"/>
      </g>
     </g>
    </g>
    <g id="ytick_20">
     <g id="line2d_121">
      <path d="M 81 189.713822 
L 583.2 189.713822 
" clip-path="url(#p80bdee05c5)" style="fill: none; stroke-dasharray: 0.8,1.32; stroke-dashoffset: 0; stroke: #b0b0b0; stroke-width: 0.8"/>
     </g>
     <g id="line2d_122">
      <g>
       <use xlink:href="#m75736af82c" x="81" y="189.713822" style="stroke: #000000; stroke-width: 0.6"/>
      </g>
     </g>
    </g>
    <g id="ytick_21">
     <g id="line2d_123">
      <path d="M 81 178.485935 
L 583.2 178.485935 
" clip-path="url(#p80bdee05c5)" style="fill: none; stroke-dasharray: 0.8,1.32; stroke-dashoffset: 0; stroke: #b0b0b0; stroke-width: 0.8"/>
     </g>
     <g id="line2d_124">
      <g>
       <use xlink:href="#m75736af82c" x="81" y="178.485935" style="stroke: #000000; stroke-width: 0.6"/>
      </g>
     </g>
    </g>
    <g id="ytick_22">
     <g id="line2d_125">
      <path d="M 81 167.258049 
L 583.2 167.258049 
" clip-path="url(#p80bdee05c5)" style="fill: none; stroke-dasharray: 0.8,1.32; stroke-dashoffset: 0; stroke: #b0b0b0; stroke-width: 0.8"/>
     </g>
     <g id="line2d_126">
      <g>
       <use xlink:href="#m75736af82c" x="81" y="167.258049" style="stroke: #000000; stroke-width: 0.6"/>
      </g>
     </g>
    </g>
    <g id="ytick_23">
     <g id="line2d_127">
      <path d="M 81 156.030163 
L 583.2 156.030163 
" clip-path="url(#p80bdee05c5)" style="fill: none; stroke-dasharray: 0.8,1.32; stroke-dashoffset: 0; stroke: #b0b0b0; stroke-width: 0.8"/>
     </g>
     <g id="line2d_128">
      <g>
       <use xlink:href="#m75736af82c" x="81" y="156.030163" style="stroke: #000000; stroke-width: 0.6"/>
      </g>
     </g>
    </g>
    <g id="ytick_24">
     <g id="line2d_129">
      <path d="M 81 133.574391 
L 583.2 133.574391 
" clip-path="url(#p80bdee05c5)" style="fill: none; stroke-dasharray: 0.8,1.32; stroke-dashoffset: 0; stroke: #b0b0b0; stroke-width: 0.8"/>
     </g>
     <g id="line2d_130">
      <g>
       <use xlink:href="#m75736af82c" x="81" y="133.574391" style="stroke: #000000; stroke-width: 0.6"/>
      </g>
     </g>
    </g>
    <g id="ytick_25">
     <g id="line2d_131">
      <path d="M 81 122.346505 
L 583.2 122.346505 
" clip-path="url(#p80bdee05c5)" style="fill: none; stroke-dasharray: 0.8,1.32; stroke-dashoffset: 0; stroke: #b0b0b0; stroke-width: 0.8"/>
     </g>
     <g id="line2d_132">
      <g>
       <use xlink:href="#m75736af82c" x="81" y="122.346505" style="stroke: #000000; stroke-width: 0.6"/>
      </g>
     </g>
    </g>
    <g id="ytick_26">
     <g id="line2d_133">
      <path d="M 81 111.118618 
L 583.2 111.118618 
" clip-path="url(#p80bdee05c5)" style="fill: none; stroke-dasharray: 0.8,1.32; stroke-dashoffset: 0; stroke: #b0b0b0; stroke-width: 0.8"/>
     </g>
     <g id="line2d_134">
      <g>
       <use xlink:href="#m75736af82c" x="81" y="111.118618" style="stroke: #000000; stroke-width: 0.6"/>
      </g>
     </g>
    </g>
    <g id="ytick_27">
     <g id="line2d_135">
      <path d="M 81 99.890732 
L 583.2 99.890732 
" clip-path="url(#p80bdee05c5)" style="fill: none; stroke-dasharray: 0.8,1.32; stroke-dashoffset: 0; stroke: #b0b0b0; stroke-width: 0.8"/>
     </g>
     <g id="line2d_136">
      <g>
       <use xlink:href="#m75736af82c" x="81" y="99.890732" style="stroke: #000000; stroke-width: 0.6"/>
      </g>
     </g>
    </g>
    <g id="ytick_28">
     <g id="line2d_137">
      <path d="M 81 77.43496 
L 583.2 77.43496 
" clip-path="url(#p80bdee05c5)" style="fill: none; stroke-dasharray: 0.8,1.32; stroke-dashoffset: 0; stroke: #b0b0b0; stroke-width: 0.8"/>
     </g>
     <g id="line2d_138">
      <g>
       <use xlink:href="#m75736af82c" x="81" y="77.43496" style="stroke: #000000; stroke-width: 0.6"/>
      </g>
     </g>
    </g>
    <g id="ytick_29">
     <g id="line2d_139">
      <path d="M 81 66.207074 
L 583.2 66.207074 
" clip-path="url(#p80bdee05c5)" style="fill: none; stroke-dasharray: 0.8,1.32; stroke-dashoffset: 0; stroke: #b0b0b0; stroke-width: 0.8"/>
     </g>
     <g id="line2d_140">
      <g>
       <use xlink:href="#m75736af82c" x="81" y="66.207074" style="stroke: #000000; stroke-width: 0.6"/>
      </g>
     </g>
    </g>
    <g id="ytick_30">
     <g id="line2d_141">
      <path d="M 81 54.979188 
L 583.2 54.979188 
" clip-path="url(#p80bdee05c5)" style="fill: none; stroke-dasharray: 0.8,1.32; stroke-dashoffset: 0; stroke: #b0b0b0; stroke-width: 0.8"/>
     </g>
     <g id="line2d_142">
      <g>
       <use xlink:href="#m75736af82c" x="81" y="54.979188" style="stroke: #000000; stroke-width: 0.6"/>
      </g>
     </g>
    </g>
    <g id="text_17">
     <!-- Скорость воздуха [м/c] -->
     <g transform="translate(55.195312 278.963125) rotate(-90) scale(0.1 -0.1)">
      <defs>
       <path id="DejaVuSans-421" d="M 4122 4306 
L 4122 3641 
Q 3803 3938 3442 4084 
Q 3081 4231 2675 4231 
Q 1875 4231 1450 3742 
Q 1025 3253 1025 2328 
Q 1025 1406 1450 917 
Q 1875 428 2675 428 
Q 3081 428 3442 575 
Q 3803 722 4122 1019 
L 4122 359 
Q 3791 134 3420 21 
Q 3050 -91 2638 -91 
Q 1578 -91 968 557 
Q 359 1206 359 2328 
Q 359 3453 968 4101 
Q 1578 4750 2638 4750 
Q 3056 4750 3426 4639 
Q 3797 4528 4122 4306 
z
" transform="scale(0.015625)"/>
       <path id="DejaVuSans-44c" d="M 2781 1038 
Q 2781 1319 2576 1466 
Q 2372 1613 1978 1613 
L 1159 1613 
L 1159 459 
L 1978 459 
Q 2372 459 2576 607 
Q 2781 756 2781 1038 
z
M 581 3500 
L 1159 3500 
L 1159 2072 
L 2003 2072 
Q 2672 2072 3033 1817 
Q 3394 1563 3394 1038 
Q 3394 513 3033 256 
Q 2672 0 2003 0 
L 581 0 
L 581 3500 
z
" transform="scale(0.015625)"/>
       <path id="DejaVuSans-432" d="M 1156 1613 
L 1156 459 
L 1975 459 
Q 2369 459 2575 607 
Q 2781 756 2781 1038 
Q 2781 1319 2575 1466 
Q 2369 1613 1975 1613 
L 1156 1613 
z
M 1156 3041 
L 1156 2072 
L 1913 2072 
Q 2238 2072 2444 2201 
Q 2650 2331 2650 2563 
Q 2650 2794 2444 2917 
Q 2238 3041 1913 3041 
L 1156 3041 
z
M 581 3500 
L 1950 3500 
Q 2566 3500 2897 3275 
Q 3228 3050 3228 2634 
Q 3228 2313 3059 2123 
Q 2891 1934 2559 1888 
Q 2956 1813 3175 1575 
Q 3394 1338 3394 981 
Q 3394 513 3033 256 
Q 2672 0 2003 0 
L 581 0 
L 581 3500 
z
" transform="scale(0.015625)"/>
       <path id="DejaVuSans-437" d="M 2206 1888 
Q 2594 1813 2809 1584 
Q 3025 1356 3025 1019 
Q 3025 478 2622 193 
Q 2219 -91 1475 -91 
Q 1225 -91 961 -47 
Q 697 -3 416 84 
L 416 619 
Q 638 503 903 445 
Q 1169 388 1459 388 
Q 1931 388 2195 563 
Q 2459 738 2459 1019 
Q 2459 1294 2225 1461 
Q 1991 1628 1563 1628 
L 1100 1628 
L 1100 2103 
L 1584 2103 
Q 1947 2103 2158 2242 
Q 2369 2381 2369 2600 
Q 2369 2800 2151 2944 
Q 1934 3088 1563 3088 
Q 1341 3088 1089 3047 
Q 838 3006 534 2916 
L 534 3438 
Q 841 3513 1106 3550 
Q 1372 3588 1609 3588 
Q 2222 3588 2576 3342 
Q 2931 3097 2931 2656 
Q 2931 2366 2743 2164 
Q 2556 1963 2206 1888 
z
" transform="scale(0.015625)"/>
       <path id="DejaVuSans-445" d="M 3513 3500 
L 2247 1797 
L 3578 0 
L 2900 0 
L 1881 1375 
L 863 0 
L 184 0 
L 1544 1831 
L 300 3500 
L 978 3500 
L 1906 2253 
L 2834 3500 
L 3513 3500 
z
" transform="scale(0.015625)"/>
       <path id="DejaVuSans-2f" d="M 1625 4666 
L 2156 4666 
L 531 -594 
L 0 -594 
L 1625 4666 
z
" transform="scale(0.015625)"/>
       <path id="DejaVuSans-63" d="M 3122 3366 
L 3122 2828 
Q 2878 2963 2633 3030 
Q 2388 3097 2138 3097 
Q 1578 3097 1268 2742 
Q 959 2388 959 1747 
Q 959 1106 1268 751 
Q 1578 397 2138 397 
Q 2388 397 2633 464 
Q 2878 531 3122 666 
L 3122 134 
Q 2881 22 2623 -34 
Q 2366 -91 2075 -91 
Q 1284 -91 818 406 
Q 353 903 353 1747 
Q 353 2603 823 3093 
Q 1294 3584 2113 3584 
Q 2378 3584 2631 3529 
Q 2884 3475 3122 3366 
z
" transform="scale(0.015625)"/>
      </defs>
      <use xlink:href="#DejaVuSans-421"/>
      <use xlink:href="#DejaVuSans-43a" x="69.824219"/>
      <use xlink:href="#DejaVuSans-43e" x="130.224609"/>
      <use xlink:href="#DejaVuSans-440" x="191.40625"/>
      <use xlink:href="#DejaVuSans-43e" x="254.882812"/>
      <use xlink:href="#DejaVuSans-441" x="316.064453"/>
      <use xlink:href="#DejaVuSans-442" x="371.044922"/>
      <use xlink:href="#DejaVuSans-44c" x="429.296875"/>
      <use xlink:href="#DejaVuSans-20" x="488.232422"/>
      <use xlink:href="#DejaVuSans-432" x="520.019531"/>
      <use xlink:href="#DejaVuSans-43e" x="578.955078"/>
      <use xlink:href="#DejaVuSans-437" x="640.136719"/>
      <use xlink:href="#DejaVuSans-434" x="693.310547"/>
      <use xlink:href="#DejaVuSans-443" x="762.451172"/>
      <use xlink:href="#DejaVuSans-445" x="821.630859"/>
      <use xlink:href="#DejaVuSans-430" x="880.810547"/>
      <use xlink:href="#DejaVuSans-20" x="942.089844"/>
      <use xlink:href="#DejaVuSans-5b" x="973.876953"/>
      <use xlink:href="#DejaVuSans-43c" x="1012.890625"/>
      <use xlink:href="#DejaVuSans-2f" x="1088.330078"/>
      <use xlink:href="#DejaVuSans-63" x="1122.021484"/>
      <use xlink:href="#DejaVuSans-5d" x="1177.001953"/>
     </g>
    </g>
   </g>
   <g id="line2d_143">
    <path d="M 527.56204 369.36 
L 520.63168 369.36 
L 513.70132 369.36 
L 506.77096 369.36 
L 499.8406 369.36 
L 492.91024 369.36 
L 485.97988 369.36 
L 479.04952 369.36 
L 472.11916 369.36 
L 465.1888 369.36 
L 458.25844 369.36 
L 451.32808 369.36 
L 444.39772 369.36 
L 437.46736 369.36 
L 430.537 369.36 
L 423.60664 369.36 
L 416.67628 369.36 
L 409.74592 369.36 
L 402.81556 369.36 
L 395.8852 369.36 
L 388.95484 239.234338 
L 382.02448 79.000265 
L 375.09412 73.949927 
L 368.16376 74.827485 
L 361.2334 69.97099 
L 354.30304 72.950185 
L 347.37268 70.96075 
L 340.44232 72.887813 
L 333.51196 77.349324 
L 326.5816 80.276635 
L 319.65124 77.983194 
L 312.72088 72.202586 
L 305.79052 69.97099 
L 298.86016 71.953804 
L 291.9298 78.491285 
L 284.99944 75.83362 
L 278.06908 75.707665 
L 271.13872 149.103518 
L 264.20836 312.347835 
L 257.278 369.36 
L 250.34764 369.36 
L 243.41728 369.36 
L 236.48692 369.36 
L 229.55656 369.36 
L 222.6262 369.36 
L 215.69584 369.36 
L 208.76548 369.36 
L 201.83512 369.36 
L 194.90476 369.36 
L 187.9744 369.36 
L 181.04404 369.36 
L 174.11368 369.36 
L 167.18332 369.36 
L 160.25296 369.36 
L 153.3226 369.36 
L 146.39224 369.36 
L 139.46188 369.36 
L 132.53152 369.36 
L 125.60116 369.36 
L 118.6708 369.36 
L 111.74044 369.36 
L 104.81008 369.36 
L 97.87972 369.36 
L 90.94936 369.36 
L 84.019 369.36 
L 77.08864 369.36 
L 70.15828 369.36 
L 63.22792 369.36 
L 56.29756 369.36 
L 49.3672 369.36 
L 42.43684 369.36 
L 35.50648 369.36 
L 28.922638 369.36 
" clip-path="url(#p80bdee05c5)" style="fill: none; stroke: #1f77b4; stroke-width: 1.5; stroke-linecap: square"/>
   </g>
   <g id="line2d_144">
    <path d="M 527.998661 369.36 
L 521.068301 369.36 
L 514.137941 369.36 
L 507.207581 369.36 
L 500.277221 369.36 
L 493.346861 369.36 
L 486.416501 369.36 
L 479.486141 369.36 
L 472.555781 369.36 
L 465.625421 369.36 
L 458.695061 369.36 
L 451.764701 369.36 
L 444.834341 369.36 
L 437.903981 369.36 
L 430.973621 369.36 
L 424.043261 369.36 
L 417.112901 369.36 
L 410.182541 369.36 
L 403.252181 337.240918 
L 396.321821 363.598296 
L 389.391461 228.062506 
L 382.461101 98.913961 
L 375.530741 76.716827 
L 368.600381 74.890267 
L 361.670021 74.576487 
L 354.739661 73.449634 
L 347.809301 66.96 
L 340.878941 68.001221 
L 333.948581 78.872936 
L 327.018221 74.953064 
L 320.087861 73.949927 
L 313.157501 67.021149 
L 306.227141 72.700776 
L 299.296781 68.984491 
L 292.366421 79.893133 
L 285.436061 108.802876 
L 278.505701 136.693382 
L 271.575341 185.424743 
L 264.644981 260.596222 
L 257.714621 295.156781 
L 250.784261 345.113658 
L 243.853901 321.517258 
L 236.923541 322.296537 
L 229.993181 369.36 
L 223.062821 369.36 
L 216.132461 369.36 
L 209.202101 369.36 
L 202.271741 369.36 
L 195.341381 369.36 
L 188.411021 369.36 
L 181.480661 369.36 
L 174.550301 369.36 
L 167.619941 369.36 
L 160.689581 369.36 
L 153.759221 369.36 
L 146.828861 369.36 
L 139.898501 369.36 
L 132.968141 369.36 
L 126.037781 369.36 
L 119.107421 369.36 
L 112.177061 369.36 
L 105.246701 369.36 
L 98.316341 369.36 
L 91.385981 369.36 
L 84.455621 369.36 
L 77.525261 369.36 
L 70.594901 369.36 
L 63.664541 369.36 
L 56.734181 369.36 
L 49.803821 369.36 
L 42.873461 369.36 
L 35.943101 369.36 
L 29.359259 369.36 
" clip-path="url(#p80bdee05c5)" style="fill: none; stroke: #ff7f0e; stroke-width: 1.5; stroke-linecap: square"/>
   </g>
   <g id="line2d_145">
    <path d="M 526.238059 369.36 
L 519.307699 369.36 
L 512.377339 369.36 
L 505.446979 369.36 
L 498.516619 369.36 
L 491.586259 369.36 
L 484.655899 369.36 
L 477.725539 369.36 
L 470.795179 369.36 
L 463.864819 369.36 
L 456.934459 348.384578 
L 450.004099 320.371578 
L 443.073739 297.177702 
L 436.143379 313.660178 
L 429.213019 296.922004 
L 422.282659 300.052619 
L 415.352299 344.362714 
L 408.421939 330.94925 
L 401.491579 273.615247 
L 394.561219 223.427712 
L 387.630859 182.136892 
L 380.700499 134.557544 
L 373.770139 108.944839 
L 366.839779 93.096954 
L 359.909419 85.309274 
L 352.979059 73.449634 
L 346.048699 78.237129 
L 339.118339 67.021149 
L 332.187979 70.898794 
L 325.257619 73.949927 
L 318.327259 69.477334 
L 311.396899 76.969661 
L 304.466539 79.000265 
L 297.536179 99.529966 
L 290.605819 111.656979 
L 283.675459 144.451679 
L 276.745099 178.614769 
L 269.814739 205.295775 
L 262.884379 250.834429 
L 255.954019 262.309696 
L 249.023659 287.345178 
L 242.093299 302.220746 
L 235.162939 309.192078 
L 228.232579 340.903713 
L 221.302219 309.809849 
L 214.371859 354.592021 
L 207.441499 345.888615 
L 200.511139 360.982863 
L 193.580779 329.998291 
L 186.650419 348.384578 
L 179.720059 345.113658 
L 172.789699 369.36 
L 165.859339 369.36 
L 158.928979 369.36 
L 151.998619 369.36 
L 145.068259 369.36 
L 138.137899 369.36 
L 131.207539 369.36 
L 124.277179 369.36 
L 117.346819 369.36 
L 110.416459 369.36 
L 103.486099 369.36 
L 96.555739 369.36 
L 89.625379 369.36 
L 82.695019 369.36 
L 75.764659 369.36 
L 68.834299 369.36 
L 61.903939 369.36 
L 54.973579 369.36 
L 48.043219 369.36 
L 41.112859 369.36 
L 34.182499 369.36 
L 27.598657 369.36 
" clip-path="url(#p80bdee05c5)" style="fill: none; stroke: #2ca02c; stroke-width: 1.5; stroke-linecap: square"/>
   </g>
   <g id="line2d_146">
    <path d="M 525.175349 369.36 
L 518.244989 369.36 
L 511.314629 369.36 
L 504.384269 369.36 
L 497.453909 369.36 
L 490.523549 369.36 
L 483.593189 369.36 
L 476.662829 369.36 
L 469.732469 369.36 
L 462.802109 369.36 
L 455.871749 369.36 
L 448.941389 369.36 
L 442.011029 369.36 
L 435.080669 369.36 
L 428.150309 319.252085 
L 421.219949 310.434097 
L 414.289589 317.084975 
L 407.359229 264.755703 
L 400.428869 234.489764 
L 393.498509 234.489764 
L 386.568149 187.344687 
L 379.637789 161.542979 
L 372.707429 142.813456 
L 365.777069 143.794962 
L 358.846709 109.086878 
L 351.916349 92.562052 
L 344.985989 94.304287 
L 338.055629 78.491285 
L 331.125269 80.660646 
L 324.194909 74.701959 
L 317.264549 77.983194 
L 310.334189 87.203273 
L 303.403829 87.26881 
L 296.473469 104.300228 
L 289.543109 127.192255 
L 282.612749 165.132806 
L 275.682389 188.977332 
L 268.752029 217.955518 
L 261.821669 239.234338 
L 254.891309 275.369336 
L 247.960949 290.564554 
L 241.030589 302.773807 
L 234.100229 301.12807 
L 227.169869 319.62245 
L 220.239509 349.28541 
L 213.309149 369.36 
L 206.378789 369.36 
L 199.448429 369.36 
L 192.518069 369.36 
L 185.587709 369.36 
L 178.657349 369.36 
L 171.726989 369.36 
L 164.796629 369.36 
L 157.866269 369.36 
L 150.935909 369.36 
L 144.005549 369.36 
L 137.075189 369.36 
L 130.144829 369.36 
L 123.214469 369.36 
L 116.284109 369.36 
L 109.353749 369.36 
L 102.423389 369.36 
L 95.493029 369.36 
L 88.562669 369.36 
L 81.632309 369.36 
L 74.701949 369.36 
L 67.771589 369.36 
L 60.841229 369.36 
L 53.910869 369.36 
L 46.980509 369.36 
L 40.050149 369.36 
L 33.119789 369.36 
L 26.535947 369.36 
" clip-path="url(#p80bdee05c5)" style="fill: none; stroke: #d62728; stroke-width: 1.5; stroke-linecap: square"/>
   </g>
   <g id="line2d_147">
    <path d="M 530.760587 369.36 
L 523.830227 369.36 
L 516.899867 369.36 
L 509.969507 369.36 
L 503.039147 369.36 
L 496.108787 369.36 
L 489.178427 369.36 
L 482.248067 369.36 
L 475.317707 369.36 
L 468.387347 369.36 
L 461.456987 302.220746 
L 454.526627 363.598296 
L 447.596267 302.773807 
L 440.665907 319.252085 
L 433.735547 313.000187 
L 426.805187 338.413643 
L 419.874827 290.564554 
L 412.944467 259.918343 
L 406.014107 252.404799 
L 399.083747 224.700259 
L 392.153387 208.023181 
L 385.223027 181.151913 
L 378.292667 160.655169 
L 371.362307 147.597642 
L 364.431947 150.788881 
L 357.501587 134.006972 
L 350.571227 97.414046 
L 343.640867 89.374098 
L 336.710507 90.432701 
L 329.780147 90.830714 
L 322.849787 93.901255 
L 315.919427 102.908753 
L 308.989067 112.303519 
L 302.058707 132.909674 
L 295.128347 143.058433 
L 288.197987 160.832429 
L 281.267627 184.722428 
L 274.337267 211.615858 
L 267.406907 216.255376 
L 260.476547 230.171945 
L 253.546187 240.663084 
L 246.615827 283.382931 
L 239.685467 282.526981 
L 232.755107 289.168994 
L 225.824747 369.36 
L 218.894387 369.36 
L 211.964027 369.36 
L 205.033667 369.36 
L 198.103307 369.36 
L 191.172947 369.36 
L 184.242587 369.36 
L 177.312227 369.36 
L 170.381867 369.36 
L 163.451507 369.36 
L 156.521147 369.36 
L 149.590787 369.36 
L 142.660427 369.36 
L 135.730067 369.36 
L 128.799707 369.36 
L 121.869347 369.36 
L 114.938987 369.36 
L 108.008627 369.36 
L 101.078267 369.36 
L 94.147907 369.36 
L 87.217547 369.36 
L 80.287187 369.36 
L 73.356827 369.36 
L 66.426467 369.36 
L 59.496107 369.36 
L 52.565747 369.36 
L 45.635387 369.36 
L 38.705027 369.36 
L 32.121185 369.36 
" clip-path="url(#p80bdee05c5)" style="fill: none; stroke: #9467bd; stroke-width: 1.5; stroke-linecap: square"/>
   </g>
   <g id="line2d_148">
    <path d="M 530.64358 369.36 
L 523.71322 369.36 
L 516.78286 369.36 
L 509.8525 369.36 
L 502.92214 369.36 
L 495.99178 331.924357 
L 489.06142 355.90214 
L 482.13106 339.632594 
L 475.2007 304.461264 
L 468.27034 303.052068 
L 461.33998 301.399592 
L 454.40962 302.773807 
L 447.47926 280.839908 
L 440.5489 285.561047 
L 433.61854 283.382931 
L 426.68818 262.829112 
L 419.75782 253.676442 
L 412.82746 244.15858 
L 405.8971 233.397453 
L 398.96674 225.469189 
L 392.03638 200.848168 
L 385.10602 183.723729 
L 378.17566 170.360169 
L 371.2453 162.255966 
L 364.31494 146.101923 
L 357.38458 149.271473 
L 350.45422 129.647917 
L 343.52386 119.230012 
L 336.5935 111.29849 
L 329.66314 115.99841 
L 322.73278 113.09595 
L 315.80242 116.802434 
L 308.87206 140.297363 
L 301.9417 153.769967 
L 295.01134 165.132806 
L 288.08098 178.51786 
L 281.15062 204.172646 
L 274.22026 224.444855 
L 267.2899 229.641599 
L 260.35954 236.0063 
L 253.42918 266.179453 
L 246.49882 268.903355 
L 239.56846 269.08758 
L 232.6381 294.412984 
L 225.70774 303.893945 
L 218.77738 325.552055 
L 211.84702 369.36 
L 204.91666 369.36 
L 197.9863 369.36 
L 191.05594 369.36 
L 184.12558 369.36 
L 177.19522 369.36 
L 170.26486 369.36 
L 163.3345 369.36 
L 156.40414 369.36 
L 149.47378 369.36 
L 142.54342 369.36 
L 135.61306 369.36 
L 128.6827 369.36 
L 121.75234 369.36 
L 114.82198 369.36 
L 107.89162 369.36 
L 100.96126 369.36 
L 94.0309 369.36 
L 87.10054 369.36 
L 80.17018 369.36 
L 73.23982 369.36 
L 66.30946 369.36 
L 59.3791 369.36 
L 52.44874 369.36 
L 45.51838 369.36 
L 38.58802 369.36 
L 32.004178 369.36 
" clip-path="url(#p80bdee05c5)" style="fill: none; stroke: #8c564b; stroke-width: 1.5; stroke-linecap: square"/>
   </g>
   <g id="line2d_149">
    <path d="M 534.388142 369.36 
L 527.457782 369.36 
L 520.527422 369.36 
L 513.597062 369.36 
L 506.666702 369.36 
L 499.736342 369.36 
L 492.805982 369.36 
L 485.875622 369.36 
L 478.945262 369.36 
L 472.014902 293.676496 
L 465.084542 325.132009 
L 458.154182 294.412984 
L 451.223822 300.588243 
L 444.293462 317.797224 
L 437.363102 312.024443 
L 430.432742 305.033586 
L 423.502382 287.797309 
L 416.572022 250.834429 
L 409.641662 250.834429 
L 402.711302 226.24225 
L 395.780942 216.497096 
L 388.850582 198.23508 
L 381.920222 192.705942 
L 374.989862 196.087608 
L 368.059502 168.050754 
L 361.129142 179.002898 
L 354.198782 153.855747 
L 347.268422 162.613382 
L 340.338062 147.347656 
L 333.407702 132.831491 
L 326.477342 141.105976 
L 319.546982 142.161474 
L 312.616622 153.769967 
L 305.686262 150.113181 
L 298.755902 161.542979 
L 291.825542 191.35049 
L 284.895182 203.50242 
L 277.964822 218.444791 
L 271.034462 216.014038 
L 264.104102 232.854576 
L 257.173742 245.943449 
L 250.243382 268.352698 
L 243.313022 286.0035 
L 236.382662 330.470864 
L 229.452302 298.470028 
L 222.521942 332.925553 
L 215.591582 336.109529 
L 208.661222 302.773807 
L 201.730862 321.517258 
L 194.800502 369.36 
L 187.870142 369.36 
L 180.939782 369.36 
L 174.009422 369.36 
L 167.079062 369.36 
L 160.148702 369.36 
L 153.218342 369.36 
L 146.287982 369.36 
L 139.357622 369.36 
L 132.427262 369.36 
L 125.496902 369.36 
L 118.566542 369.36 
L 111.636182 369.36 
L 104.705822 369.36 
L 97.775462 369.36 
L 90.845102 369.36 
L 83.914742 369.36 
L 76.984382 369.36 
L 70.054022 369.36 
L 63.123662 369.36 
L 56.193302 369.36 
L 49.262942 369.36 
L 42.332582 369.36 
L 35.74874 369.36 
" clip-path="url(#p80bdee05c5)" style="fill: none; stroke: #e377c2; stroke-width: 1.5; stroke-linecap: square"/>
   </g>
   <g id="line2d_150">
    <path d="M 543.105074 369.36 
L 536.174714 369.36 
L 529.244354 369.36 
L 522.313994 369.36 
L 515.383634 369.36 
L 508.453274 369.36 
L 501.522914 369.36 
L 494.592554 369.36 
L 487.662194 369.36 
L 480.731834 369.36 
L 473.801474 369.36 
L 466.871114 369.36 
L 459.940754 318.157064 
L 453.010394 330.94925 
L 446.080034 283.168146 
L 439.149674 264.755703 
L 432.219314 253.357224 
L 425.288954 240.519497 
L 418.358594 270.948789 
L 411.428234 232.719193 
L 404.497874 241.527997 
L 397.567514 221.414403 
L 390.637154 223.935394 
L 383.706794 202.612975 
L 376.776434 196.194349 
L 369.846074 183.325751 
L 362.915714 194.494309 
L 355.985354 174.491202 
L 349.054994 170.267278 
L 342.124634 182.433398 
L 335.194274 164.861383 
L 328.263914 174.491202 
L 321.333554 193.545261 
L 314.403194 188.567788 
L 307.472834 175.919672 
L 300.542474 188.977332 
L 293.612114 245.644182 
L 286.681754 192.287775 
L 279.751394 230.971274 
L 272.821034 230.171945 
L 265.890674 248.058984 
L 258.960314 259.918343 
L 252.029954 269.827887 
L 245.099594 300.588243 
L 238.169234 266.179453 
L 231.238874 296.413296 
L 224.308514 369.36 
L 217.378154 369.36 
L 210.447794 369.36 
L 203.517434 369.36 
L 196.587074 369.36 
L 189.656714 369.36 
L 182.726354 369.36 
L 175.795994 369.36 
L 168.865634 369.36 
L 161.935274 369.36 
L 155.004914 369.36 
L 148.074554 369.36 
L 141.144194 369.36 
L 134.213834 369.36 
L 127.283474 369.36 
L 120.353114 369.36 
L 113.422754 369.36 
L 106.492394 369.36 
L 99.562034 369.36 
L 92.631674 369.36 
L 85.701314 369.36 
L 78.770954 369.36 
L 71.840594 369.36 
L 64.910234 369.36 
L 57.979874 369.36 
L 51.049514 369.36 
L 44.465672 369.36 
" clip-path="url(#p80bdee05c5)" style="fill: none; stroke: #7f7f7f; stroke-width: 1.5; stroke-linecap: square"/>
   </g>
   <g id="line2d_151">
    <path d="M 549.59387 369.36 
L 542.66351 369.36 
L 535.73315 369.36 
L 528.80279 369.36 
L 521.87243 369.36 
L 514.94207 369.36 
L 508.01171 369.36 
L 501.08135 369.36 
L 494.15099 369.36 
L 487.22063 363.598296 
L 480.29027 305.321665 
L 473.35991 299.521104 
L 466.42955 291.508824 
L 459.49919 267.623125 
L 452.56883 313.660178 
L 445.63847 274.976721 
L 438.70811 274.976721 
L 431.77775 250.834429 
L 424.84739 279.595408 
L 417.91703 263.351074 
L 410.98667 253.836382 
L 404.05631 256.426217 
L 397.12595 236.145023 
L 390.19559 218.444791 
L 383.26523 228.324461 
L 376.33487 212.674322 
L 369.40451 213.383956 
L 362.47415 205.295775 
L 355.54379 195.661299 
L 348.61343 203.50242 
L 341.68307 201.728249 
L 334.75271 187.344687 
L 327.82235 205.295775 
L 320.89199 202.834891 
L 313.96163 199.101653 
L 307.03127 200.848168 
L 300.10091 216.497096 
L 293.17055 233.397453 
L 286.24019 235.729286 
L 279.30983 238.243478 
L 272.37947 234.489764 
L 265.44911 252.089042 
L 258.51875 252.72141 
L 251.58839 282.526981 
L 244.65803 280.008316 
L 237.72767 296.160267 
L 230.79731 288.709173 
L 223.86695 290.564554 
L 216.93659 306.78195 
L 210.00623 369.36 
L 203.07587 369.36 
L 196.14551 369.36 
L 189.21515 369.36 
L 182.28479 369.36 
L 175.35443 369.36 
L 168.42407 369.36 
L 161.49371 369.36 
L 154.56335 369.36 
L 147.63299 369.36 
L 140.70263 369.36 
L 133.77227 369.36 
L 126.84191 369.36 
L 119.91155 369.36 
L 112.98119 369.36 
L 106.05083 369.36 
L 99.12047 369.36 
L 92.19011 369.36 
L 85.25975 369.36 
L 78.32939 369.36 
L 71.39903 369.36 
L 64.46867 369.36 
L 57.53831 369.36 
L 50.954468 369.36 
" clip-path="url(#p80bdee05c5)" style="fill: none; stroke: #bcbd22; stroke-width: 1.5; stroke-linecap: square"/>
   </g>
   <g id="line2d_152">
    <path d="M 540.987976 369.36 
L 534.057616 369.36 
L 527.127256 369.36 
L 520.196896 369.36 
L 513.266536 369.36 
L 506.336176 369.36 
L 499.405816 369.36 
L 492.475456 369.36 
L 485.545096 369.36 
L 478.614736 319.995593 
L 471.684376 300.319912 
L 464.754016 300.857625 
L 457.823656 307.375695 
L 450.893296 308.580585 
L 443.962936 277.558726 
L 437.032576 286.0035 
L 430.102216 264.755703 
L 423.171856 276.756595 
L 416.241496 259.244638 
L 409.311136 247.602561 
L 402.380776 300.052619 
L 395.450416 230.571034 
L 388.520056 246.243442 
L 381.589696 221.915153 
L 374.659336 217.224559 
L 367.728976 215.412346 
L 360.798616 222.92179 
L 353.868256 203.50242 
L 346.937896 203.279612 
L 340.007536 189.799221 
L 333.077176 206.995035 
L 326.146816 206.199845 
L 319.216456 194.388605 
L 312.286096 197.157996 
L 305.355736 193.966426 
L 298.425376 221.915153 
L 291.495016 218.077688 
L 284.564656 220.417953 
L 277.634296 230.704319 
L 270.703936 235.03925 
L 263.773576 248.977022 
L 256.843216 239.518829 
L 249.912856 275.961352 
L 242.982496 252.562997 
L 236.052136 269.08758 
L 229.121776 264.755703 
L 222.191416 286.448313 
L 215.261056 279.801624 
L 208.330696 295.406376 
L 201.400336 304.746791 
L 194.469976 275.172824 
L 187.539616 276.756595 
L 180.609256 289.631466 
L 173.678896 292.224613 
L 166.748536 286.895527 
L 159.818176 329.069772 
L 152.887816 369.36 
L 145.957456 369.36 
L 139.027096 369.36 
L 132.096736 369.36 
L 125.166376 369.36 
L 118.236016 369.36 
L 111.305656 369.36 
L 104.375296 369.36 
L 97.444936 369.36 
L 90.514576 369.36 
L 83.584216 369.36 
L 76.653856 369.36 
L 69.723496 369.36 
L 62.793136 369.36 
L 55.862776 369.36 
L 48.932416 369.36 
L 42.348574 369.36 
" clip-path="url(#p80bdee05c5)" style="fill: none; stroke: #17becf; stroke-width: 1.5; stroke-linecap: square"/>
   </g>
   <g id="patch_3">
    <path d="M 81 384.48 
L 81 51.84 
" style="fill: none; stroke: #000000; stroke-width: 0.8; stroke-linejoin: miter; stroke-linecap: square"/>
   </g>
   <g id="patch_4">
    <path d="M 583.2 384.48 
L 583.2 51.84 
" style="fill: none; stroke: #000000; stroke-width: 0.8; stroke-linejoin: miter; stroke-linecap: square"/>
   </g>
   <g id="patch_5">
    <path d="M 81 384.48 
L 583.2 384.48 
" style="fill: none; stroke: #000000; stroke-width: 0.8; stroke-linejoin: miter; stroke-linecap: square"/>
   </g>
   <g id="patch_6">
    <path d="M 81 51.84 
L 583.2 51.84 
" style="fill: none; stroke: #000000; stroke-width: 0.8; stroke-linejoin: miter; stroke-linecap: square"/>
   </g>
   <g id="text_18">
    <!-- Скорость воздуха в сечении затопленной трубы -->
    <g transform="translate(178.268438 45.84) scale(0.12 -0.12)">
     <defs>
      <path id="DejaVuSans-447" d="M 2625 0 
L 2625 1472 
L 1553 1472 
Q 1075 1472 756 1769 
Q 469 2038 469 2613 
L 469 3500 
L 1044 3500 
L 1044 2666 
Q 1044 2300 1206 2116 
Q 1372 1931 1697 1931 
L 2625 1931 
L 2625 3500 
L 3200 3500 
L 3200 0 
L 2625 0 
z
" transform="scale(0.015625)"/>
      <path id="DejaVuSans-43f" d="M 3603 3500 
L 3603 0 
L 3025 0 
L 3025 3041 
L 1159 3041 
L 1159 0 
L 581 0 
L 581 3500 
L 3603 3500 
z
" transform="scale(0.015625)"/>
      <path id="DejaVuSans-43b" d="M 238 0 
L 238 478 
Q 806 566 981 959 
Q 1194 1513 1194 2928 
L 1194 3500 
L 3559 3500 
L 3559 0 
L 2984 0 
L 2984 3041 
L 1769 3041 
L 1769 2694 
Q 1769 1344 1494 738 
Q 1200 91 238 0 
z
" transform="scale(0.015625)"/>
      <path id="DejaVuSans-439" d="M 3578 3500 
L 3578 0 
L 3006 0 
L 3006 2809 
L 1319 0 
L 581 0 
L 581 3500 
L 1153 3500 
L 1153 697 
L 2838 3500 
L 3578 3500 
z
M 1103 4862 
L 1472 4862 
Q 1506 4628 1657 4510 
Q 1809 4393 2081 4393 
Q 2350 4393 2500 4509 
Q 2650 4625 2691 4862 
L 3059 4862 
Q 3028 4415 2781 4190 
Q 2534 3965 2081 3965 
Q 1628 3965 1381 4190 
Q 1134 4415 1103 4862 
z
" transform="scale(0.015625)"/>
      <path id="DejaVuSans-44b" d="M 3909 3500 
L 4484 3500 
L 4484 0 
L 3909 0 
L 3909 3500 
z
M 4197 3584 
L 4197 3584 
z
M 2781 1038 
Q 2781 1319 2576 1466 
Q 2372 1613 1978 1613 
L 1159 1613 
L 1159 459 
L 1978 459 
Q 2372 459 2576 607 
Q 2781 756 2781 1038 
z
M 581 3500 
L 1159 3500 
L 1159 2072 
L 2003 2072 
Q 2672 2072 3033 1817 
Q 3394 1563 3394 1038 
Q 3394 513 3033 256 
Q 2672 0 2003 0 
L 581 0 
L 581 3500 
z
" transform="scale(0.015625)"/>
     </defs>
     <use xlink:href="#DejaVuSans-421"/>
     <use xlink:href="#DejaVuSans-43a" x="69.824219"/>
     <use xlink:href="#DejaVuSans-43e" x="130.224609"/>
     <use xlink:href="#DejaVuSans-440" x="191.40625"/>
     <use xlink:href="#DejaVuSans-43e" x="254.882812"/>
     <use xlink:href="#DejaVuSans-441" x="316.064453"/>
     <use xlink:href="#DejaVuSans-442" x="371.044922"/>
     <use xlink:href="#DejaVuSans-44c" x="429.296875"/>
     <use xlink:href="#DejaVuSans-20" x="488.232422"/>
     <use xlink:href="#DejaVuSans-432" x="520.019531"/>
     <use xlink:href="#DejaVuSans-43e" x="578.955078"/>
     <use xlink:href="#DejaVuSans-437" x="640.136719"/>
     <use xlink:href="#DejaVuSans-434" x="693.310547"/>
     <use xlink:href="#DejaVuSans-443" x="762.451172"/>
     <use xlink:href="#DejaVuSans-445" x="821.630859"/>
     <use xlink:href="#DejaVuSans-430" x="880.810547"/>
     <use xlink:href="#DejaVuSans-20" x="942.089844"/>
     <use xlink:href="#DejaVuSans-432" x="973.876953"/>
     <use xlink:href="#DejaVuSans-20" x="1032.8125"/>
     <use xlink:href="#DejaVuSans-441" x="1064.599609"/>
     <use xlink:href="#DejaVuSans-435" x="1119.580078"/>
     <use xlink:href="#DejaVuSans-447" x="1181.103516"/>
     <use xlink:href="#DejaVuSans-435" x="1240.185547"/>
     <use xlink:href="#DejaVuSans-43d" x="1301.708984"/>
     <use xlink:href="#DejaVuSans-438" x="1367.089844"/>
     <use xlink:href="#DejaVuSans-438" x="1432.080078"/>
     <use xlink:href="#DejaVuSans-20" x="1497.070312"/>
     <use xlink:href="#DejaVuSans-437" x="1528.857422"/>
     <use xlink:href="#DejaVuSans-430" x="1582.03125"/>
     <use xlink:href="#DejaVuSans-442" x="1643.310547"/>
     <use xlink:href="#DejaVuSans-43e" x="1701.5625"/>
     <use xlink:href="#DejaVuSans-43f" x="1762.744141"/>
     <use xlink:href="#DejaVuSans-43b" x="1828.125"/>
     <use xlink:href="#DejaVuSans-435" x="1892.041016"/>
     <use xlink:href="#DejaVuSans-43d" x="1953.564453"/>
     <use xlink:href="#DejaVuSans-43d" x="2018.945312"/>
     <use xlink:href="#DejaVuSans-43e" x="2084.326172"/>
     <use xlink:href="#DejaVuSans-439" x="2145.507812"/>
     <use xlink:href="#DejaVuSans-20" x="2210.498047"/>
     <use xlink:href="#DejaVuSans-442" x="2242.285156"/>
     <use xlink:href="#DejaVuSans-440" x="2300.537109"/>
     <use xlink:href="#DejaVuSans-443" x="2364.013672"/>
     <use xlink:href="#DejaVuSans-431" x="2423.193359"/>
     <use xlink:href="#DejaVuSans-44b" x="2484.863281"/>
    </g>
   </g>
   <g id="legend_1">
    <g id="patch_7">
     <path d="M 438.607813 206.62125 
L 576.2 206.62125 
Q 578.2 206.62125 578.2 204.62125 
L 578.2 58.84 
Q 578.2 56.84 576.2 56.84 
L 438.607813 56.84 
Q 436.607813 56.84 436.607813 58.84 
L 436.607813 204.62125 
Q 436.607813 206.62125 438.607813 206.62125 
z
" style="fill: #ffffff; opacity: 0.8; stroke: #cccccc; stroke-linejoin: miter"/>
    </g>
    <g id="line2d_153">
     <path d="M 440.607813 64.938437 
L 450.607813 64.938437 
L 460.607813 64.938437 
" style="fill: none; stroke: #1f77b4; stroke-width: 1.5; stroke-linecap: square"/>
    </g>
    <g id="text_19">
     <!-- Q (00 мм)=2.29 [г/c] -->
     <g transform="translate(468.607813 68.438437) scale(0.1 -0.1)">
      <defs>
       <path id="DejaVuSans-51" d="M 2522 4238 
Q 1834 4238 1429 3725 
Q 1025 3213 1025 2328 
Q 1025 1447 1429 934 
Q 1834 422 2522 422 
Q 3209 422 3611 934 
Q 4013 1447 4013 2328 
Q 4013 3213 3611 3725 
Q 3209 4238 2522 4238 
z
M 3406 84 
L 4238 -825 
L 3475 -825 
L 2784 -78 
Q 2681 -84 2626 -87 
Q 2572 -91 2522 -91 
Q 1538 -91 948 567 
Q 359 1225 359 2328 
Q 359 3434 948 4092 
Q 1538 4750 2522 4750 
Q 3503 4750 4090 4092 
Q 4678 3434 4678 2328 
Q 4678 1516 4351 937 
Q 4025 359 3406 84 
z
" transform="scale(0.015625)"/>
       <path id="DejaVuSans-28" d="M 1984 4856 
Q 1566 4138 1362 3434 
Q 1159 2731 1159 2009 
Q 1159 1288 1364 580 
Q 1569 -128 1984 -844 
L 1484 -844 
Q 1016 -109 783 600 
Q 550 1309 550 2009 
Q 550 2706 781 3412 
Q 1013 4119 1484 4856 
L 1984 4856 
z
" transform="scale(0.015625)"/>
       <path id="DejaVuSans-29" d="M 513 4856 
L 1013 4856 
Q 1481 4119 1714 3412 
Q 1947 2706 1947 2009 
Q 1947 1309 1714 600 
Q 1481 -109 1013 -844 
L 513 -844 
Q 928 -128 1133 580 
Q 1338 1288 1338 2009 
Q 1338 2731 1133 3434 
Q 928 4138 513 4856 
z
" transform="scale(0.015625)"/>
       <path id="DejaVuSans-3d" d="M 678 2906 
L 4684 2906 
L 4684 2381 
L 678 2381 
L 678 2906 
z
M 678 1631 
L 4684 1631 
L 4684 1100 
L 678 1100 
L 678 1631 
z
" transform="scale(0.015625)"/>
       <path id="DejaVuSans-39" d="M 703 97 
L 703 672 
Q 941 559 1184 500 
Q 1428 441 1663 441 
Q 2288 441 2617 861 
Q 2947 1281 2994 2138 
Q 2813 1869 2534 1725 
Q 2256 1581 1919 1581 
Q 1219 1581 811 2004 
Q 403 2428 403 3163 
Q 403 3881 828 4315 
Q 1253 4750 1959 4750 
Q 2769 4750 3195 4129 
Q 3622 3509 3622 2328 
Q 3622 1225 3098 567 
Q 2575 -91 1691 -91 
Q 1453 -91 1209 -44 
Q 966 3 703 97 
z
M 1959 2075 
Q 2384 2075 2632 2365 
Q 2881 2656 2881 3163 
Q 2881 3666 2632 3958 
Q 2384 4250 1959 4250 
Q 1534 4250 1286 3958 
Q 1038 3666 1038 3163 
Q 1038 2656 1286 2365 
Q 1534 2075 1959 2075 
z
" transform="scale(0.015625)"/>
       <path id="DejaVuSans-433" d="M 581 0 
L 581 3500 
L 3050 3500 
L 3050 3041 
L 1159 3041 
L 1159 0 
L 581 0 
z
" transform="scale(0.015625)"/>
      </defs>
      <use xlink:href="#DejaVuSans-51"/>
      <use xlink:href="#DejaVuSans-20" x="78.710938"/>
      <use xlink:href="#DejaVuSans-28" x="110.498047"/>
      <use xlink:href="#DejaVuSans-30" x="149.511719"/>
      <use xlink:href="#DejaVuSans-30" x="213.134766"/>
      <use xlink:href="#DejaVuSans-20" x="276.757812"/>
      <use xlink:href="#DejaVuSans-43c" x="308.544922"/>
      <use xlink:href="#DejaVuSans-43c" x="383.984375"/>
      <use xlink:href="#DejaVuSans-29" x="459.423828"/>
      <use xlink:href="#DejaVuSans-3d" x="498.4375"/>
      <use xlink:href="#DejaVuSans-32" x="582.226562"/>
      <use xlink:href="#DejaVuSans-2e" x="645.849609"/>
      <use xlink:href="#DejaVuSans-32" x="677.636719"/>
      <use xlink:href="#DejaVuSans-39" x="741.259766"/>
      <use xlink:href="#DejaVuSans-20" x="804.882812"/>
      <use xlink:href="#DejaVuSans-5b" x="836.669922"/>
      <use xlink:href="#DejaVuSans-433" x="875.683594"/>
      <use xlink:href="#DejaVuSans-2f" x="928.222656"/>
      <use xlink:href="#DejaVuSans-63" x="961.914062"/>
      <use xlink:href="#DejaVuSans-5d" x="1016.894531"/>
     </g>
    </g>
    <g id="line2d_154">
     <path d="M 440.607813 79.616562 
L 450.607813 79.616562 
L 460.607813 79.616562 
" style="fill: none; stroke: #ff7f0e; stroke-width: 1.5; stroke-linecap: square"/>
    </g>
    <g id="text_20">
     <!-- Q (10 мм)=2.51 [г/c] -->
     <g transform="translate(468.607813 83.116562) scale(0.1 -0.1)">
      <use xlink:href="#DejaVuSans-51"/>
      <use xlink:href="#DejaVuSans-20" x="78.710938"/>
      <use xlink:href="#DejaVuSans-28" x="110.498047"/>
      <use xlink:href="#DejaVuSans-31" x="149.511719"/>
      <use xlink:href="#DejaVuSans-30" x="213.134766"/>
      <use xlink:href="#DejaVuSans-20" x="276.757812"/>
      <use xlink:href="#DejaVuSans-43c" x="308.544922"/>
      <use xlink:href="#DejaVuSans-43c" x="383.984375"/>
      <use xlink:href="#DejaVuSans-29" x="459.423828"/>
      <use xlink:href="#DejaVuSans-3d" x="498.4375"/>
      <use xlink:href="#DejaVuSans-32" x="582.226562"/>
      <use xlink:href="#DejaVuSans-2e" x="645.849609"/>
      <use xlink:href="#DejaVuSans-35" x="677.636719"/>
      <use xlink:href="#DejaVuSans-31" x="741.259766"/>
      <use xlink:href="#DejaVuSans-20" x="804.882812"/>
      <use xlink:href="#DejaVuSans-5b" x="836.669922"/>
      <use xlink:href="#DejaVuSans-433" x="875.683594"/>
      <use xlink:href="#DejaVuSans-2f" x="928.222656"/>
      <use xlink:href="#DejaVuSans-63" x="961.914062"/>
      <use xlink:href="#DejaVuSans-5d" x="1016.894531"/>
     </g>
    </g>
    <g id="line2d_155">
     <path d="M 440.607813 94.294688 
L 450.607813 94.294688 
L 460.607813 94.294688 
" style="fill: none; stroke: #2ca02c; stroke-width: 1.5; stroke-linecap: square"/>
    </g>
    <g id="text_21">
     <!-- Q (20 мм)=3.74 [г/c] -->
     <g transform="translate(468.607813 97.794688) scale(0.1 -0.1)">
      <defs>
       <path id="DejaVuSans-33" d="M 2597 2516 
Q 3050 2419 3304 2112 
Q 3559 1806 3559 1356 
Q 3559 666 3084 287 
Q 2609 -91 1734 -91 
Q 1441 -91 1130 -33 
Q 819 25 488 141 
L 488 750 
Q 750 597 1062 519 
Q 1375 441 1716 441 
Q 2309 441 2620 675 
Q 2931 909 2931 1356 
Q 2931 1769 2642 2001 
Q 2353 2234 1838 2234 
L 1294 2234 
L 1294 2753 
L 1863 2753 
Q 2328 2753 2575 2939 
Q 2822 3125 2822 3475 
Q 2822 3834 2567 4026 
Q 2313 4219 1838 4219 
Q 1578 4219 1281 4162 
Q 984 4106 628 3988 
L 628 4550 
Q 988 4650 1302 4700 
Q 1616 4750 1894 4750 
Q 2613 4750 3031 4423 
Q 3450 4097 3450 3541 
Q 3450 3153 3228 2886 
Q 3006 2619 2597 2516 
z
" transform="scale(0.015625)"/>
       <path id="DejaVuSans-37" d="M 525 4666 
L 3525 4666 
L 3525 4397 
L 1831 0 
L 1172 0 
L 2766 4134 
L 525 4134 
L 525 4666 
z
" transform="scale(0.015625)"/>
       <path id="DejaVuSans-34" d="M 2419 4116 
L 825 1625 
L 2419 1625 
L 2419 4116 
z
M 2253 4666 
L 3047 4666 
L 3047 1625 
L 3713 1625 
L 3713 1100 
L 3047 1100 
L 3047 0 
L 2419 0 
L 2419 1100 
L 313 1100 
L 313 1709 
L 2253 4666 
z
" transform="scale(0.015625)"/>
      </defs>
      <use xlink:href="#DejaVuSans-51"/>
      <use xlink:href="#DejaVuSans-20" x="78.710938"/>
      <use xlink:href="#DejaVuSans-28" x="110.498047"/>
      <use xlink:href="#DejaVuSans-32" x="149.511719"/>
      <use xlink:href="#DejaVuSans-30" x="213.134766"/>
      <use xlink:href="#DejaVuSans-20" x="276.757812"/>
      <use xlink:href="#DejaVuSans-43c" x="308.544922"/>
      <use xlink:href="#DejaVuSans-43c" x="383.984375"/>
      <use xlink:href="#DejaVuSans-29" x="459.423828"/>
      <use xlink:href="#DejaVuSans-3d" x="498.4375"/>
      <use xlink:href="#DejaVuSans-33" x="582.226562"/>
      <use xlink:href="#DejaVuSans-2e" x="645.849609"/>
      <use xlink:href="#DejaVuSans-37" x="677.636719"/>
      <use xlink:href="#DejaVuSans-34" x="741.259766"/>
      <use xlink:href="#DejaVuSans-20" x="804.882812"/>
      <use xlink:href="#DejaVuSans-5b" x="836.669922"/>
      <use xlink:href="#DejaVuSans-433" x="875.683594"/>
      <use xlink:href="#DejaVuSans-2f" x="928.222656"/>
      <use xlink:href="#DejaVuSans-63" x="961.914062"/>
      <use xlink:href="#DejaVuSans-5d" x="1016.894531"/>
     </g>
    </g>
    <g id="line2d_156">
     <path d="M 440.607813 108.972812 
L 450.607813 108.972812 
L 460.607813 108.972812 
" style="fill: none; stroke: #d62728; stroke-width: 1.5; stroke-linecap: square"/>
    </g>
    <g id="text_22">
     <!-- Q (30 мм)=3.07 [г/c] -->
     <g transform="translate(468.607813 112.472812) scale(0.1 -0.1)">
      <use xlink:href="#DejaVuSans-51"/>
      <use xlink:href="#DejaVuSans-20" x="78.710938"/>
      <use xlink:href="#DejaVuSans-28" x="110.498047"/>
      <use xlink:href="#DejaVuSans-33" x="149.511719"/>
      <use xlink:href="#DejaVuSans-30" x="213.134766"/>
      <use xlink:href="#DejaVuSans-20" x="276.757812"/>
      <use xlink:href="#DejaVuSans-43c" x="308.544922"/>
      <use xlink:href="#DejaVuSans-43c" x="383.984375"/>
      <use xlink:href="#DejaVuSans-29" x="459.423828"/>
      <use xlink:href="#DejaVuSans-3d" x="498.4375"/>
      <use xlink:href="#DejaVuSans-33" x="582.226562"/>
      <use xlink:href="#DejaVuSans-2e" x="645.849609"/>
      <use xlink:href="#DejaVuSans-30" x="677.636719"/>
      <use xlink:href="#DejaVuSans-37" x="741.259766"/>
      <use xlink:href="#DejaVuSans-20" x="804.882812"/>
      <use xlink:href="#DejaVuSans-5b" x="836.669922"/>
      <use xlink:href="#DejaVuSans-433" x="875.683594"/>
      <use xlink:href="#DejaVuSans-2f" x="928.222656"/>
      <use xlink:href="#DejaVuSans-63" x="961.914062"/>
      <use xlink:href="#DejaVuSans-5d" x="1016.894531"/>
     </g>
    </g>
    <g id="line2d_157">
     <path d="M 440.607813 123.650937 
L 450.607813 123.650937 
L 460.607813 123.650937 
" style="fill: none; stroke: #9467bd; stroke-width: 1.5; stroke-linecap: square"/>
    </g>
    <g id="text_23">
     <!-- Q (40 мм)=3.48 [г/c] -->
     <g transform="translate(468.607813 127.150937) scale(0.1 -0.1)">
      <defs>
       <path id="DejaVuSans-38" d="M 2034 2216 
Q 1584 2216 1326 1975 
Q 1069 1734 1069 1313 
Q 1069 891 1326 650 
Q 1584 409 2034 409 
Q 2484 409 2743 651 
Q 3003 894 3003 1313 
Q 3003 1734 2745 1975 
Q 2488 2216 2034 2216 
z
M 1403 2484 
Q 997 2584 770 2862 
Q 544 3141 544 3541 
Q 544 4100 942 4425 
Q 1341 4750 2034 4750 
Q 2731 4750 3128 4425 
Q 3525 4100 3525 3541 
Q 3525 3141 3298 2862 
Q 3072 2584 2669 2484 
Q 3125 2378 3379 2068 
Q 3634 1759 3634 1313 
Q 3634 634 3220 271 
Q 2806 -91 2034 -91 
Q 1263 -91 848 271 
Q 434 634 434 1313 
Q 434 1759 690 2068 
Q 947 2378 1403 2484 
z
M 1172 3481 
Q 1172 3119 1398 2916 
Q 1625 2713 2034 2713 
Q 2441 2713 2670 2916 
Q 2900 3119 2900 3481 
Q 2900 3844 2670 4047 
Q 2441 4250 2034 4250 
Q 1625 4250 1398 4047 
Q 1172 3844 1172 3481 
z
" transform="scale(0.015625)"/>
      </defs>
      <use xlink:href="#DejaVuSans-51"/>
      <use xlink:href="#DejaVuSans-20" x="78.710938"/>
      <use xlink:href="#DejaVuSans-28" x="110.498047"/>
      <use xlink:href="#DejaVuSans-34" x="149.511719"/>
      <use xlink:href="#DejaVuSans-30" x="213.134766"/>
      <use xlink:href="#DejaVuSans-20" x="276.757812"/>
      <use xlink:href="#DejaVuSans-43c" x="308.544922"/>
      <use xlink:href="#DejaVuSans-43c" x="383.984375"/>
      <use xlink:href="#DejaVuSans-29" x="459.423828"/>
      <use xlink:href="#DejaVuSans-3d" x="498.4375"/>
      <use xlink:href="#DejaVuSans-33" x="582.226562"/>
      <use xlink:href="#DejaVuSans-2e" x="645.849609"/>
      <use xlink:href="#DejaVuSans-34" x="677.636719"/>
      <use xlink:href="#DejaVuSans-38" x="741.259766"/>
      <use xlink:href="#DejaVuSans-20" x="804.882812"/>
      <use xlink:href="#DejaVuSans-5b" x="836.669922"/>
      <use xlink:href="#DejaVuSans-433" x="875.683594"/>
      <use xlink:href="#DejaVuSans-2f" x="928.222656"/>
      <use xlink:href="#DejaVuSans-63" x="961.914062"/>
      <use xlink:href="#DejaVuSans-5d" x="1016.894531"/>
     </g>
    </g>
    <g id="line2d_158">
     <path d="M 440.607813 138.329062 
L 450.607813 138.329062 
L 460.607813 138.329062 
" style="fill: none; stroke: #8c564b; stroke-width: 1.5; stroke-linecap: square"/>
    </g>
    <g id="text_24">
     <!-- Q (50 мм)=4.43 [г/c] -->
     <g transform="translate(468.607813 141.829062) scale(0.1 -0.1)">
      <use xlink:href="#DejaVuSans-51"/>
      <use xlink:href="#DejaVuSans-20" x="78.710938"/>
      <use xlink:href="#DejaVuSans-28" x="110.498047"/>
      <use xlink:href="#DejaVuSans-35" x="149.511719"/>
      <use xlink:href="#DejaVuSans-30" x="213.134766"/>
      <use xlink:href="#DejaVuSans-20" x="276.757812"/>
      <use xlink:href="#DejaVuSans-43c" x="308.544922"/>
      <use xlink:href="#DejaVuSans-43c" x="383.984375"/>
      <use xlink:href="#DejaVuSans-29" x="459.423828"/>
      <use xlink:href="#DejaVuSans-3d" x="498.4375"/>
      <use xlink:href="#DejaVuSans-34" x="582.226562"/>
      <use xlink:href="#DejaVuSans-2e" x="645.849609"/>
      <use xlink:href="#DejaVuSans-34" x="677.636719"/>
      <use xlink:href="#DejaVuSans-33" x="741.259766"/>
      <use xlink:href="#DejaVuSans-20" x="804.882812"/>
      <use xlink:href="#DejaVuSans-5b" x="836.669922"/>
      <use xlink:href="#DejaVuSans-433" x="875.683594"/>
      <use xlink:href="#DejaVuSans-2f" x="928.222656"/>
      <use xlink:href="#DejaVuSans-63" x="961.914062"/>
      <use xlink:href="#DejaVuSans-5d" x="1016.894531"/>
     </g>
    </g>
    <g id="line2d_159">
     <path d="M 440.607813 153.007187 
L 450.607813 153.007187 
L 460.607813 153.007187 
" style="fill: none; stroke: #e377c2; stroke-width: 1.5; stroke-linecap: square"/>
    </g>
    <g id="text_25">
     <!-- Q (60 мм)=3.97 [г/c] -->
     <g transform="translate(468.607813 156.507187) scale(0.1 -0.1)">
      <defs>
       <path id="DejaVuSans-36" d="M 2113 2584 
Q 1688 2584 1439 2293 
Q 1191 2003 1191 1497 
Q 1191 994 1439 701 
Q 1688 409 2113 409 
Q 2538 409 2786 701 
Q 3034 994 3034 1497 
Q 3034 2003 2786 2293 
Q 2538 2584 2113 2584 
z
M 3366 4563 
L 3366 3988 
Q 3128 4100 2886 4159 
Q 2644 4219 2406 4219 
Q 1781 4219 1451 3797 
Q 1122 3375 1075 2522 
Q 1259 2794 1537 2939 
Q 1816 3084 2150 3084 
Q 2853 3084 3261 2657 
Q 3669 2231 3669 1497 
Q 3669 778 3244 343 
Q 2819 -91 2113 -91 
Q 1303 -91 875 529 
Q 447 1150 447 2328 
Q 447 3434 972 4092 
Q 1497 4750 2381 4750 
Q 2619 4750 2861 4703 
Q 3103 4656 3366 4563 
z
" transform="scale(0.015625)"/>
      </defs>
      <use xlink:href="#DejaVuSans-51"/>
      <use xlink:href="#DejaVuSans-20" x="78.710938"/>
      <use xlink:href="#DejaVuSans-28" x="110.498047"/>
      <use xlink:href="#DejaVuSans-36" x="149.511719"/>
      <use xlink:href="#DejaVuSans-30" x="213.134766"/>
      <use xlink:href="#DejaVuSans-20" x="276.757812"/>
      <use xlink:href="#DejaVuSans-43c" x="308.544922"/>
      <use xlink:href="#DejaVuSans-43c" x="383.984375"/>
      <use xlink:href="#DejaVuSans-29" x="459.423828"/>
      <use xlink:href="#DejaVuSans-3d" x="498.4375"/>
      <use xlink:href="#DejaVuSans-33" x="582.226562"/>
      <use xlink:href="#DejaVuSans-2e" x="645.849609"/>
      <use xlink:href="#DejaVuSans-39" x="677.636719"/>
      <use xlink:href="#DejaVuSans-37" x="741.259766"/>
      <use xlink:href="#DejaVuSans-20" x="804.882812"/>
      <use xlink:href="#DejaVuSans-5b" x="836.669922"/>
      <use xlink:href="#DejaVuSans-433" x="875.683594"/>
      <use xlink:href="#DejaVuSans-2f" x="928.222656"/>
      <use xlink:href="#DejaVuSans-63" x="961.914062"/>
      <use xlink:href="#DejaVuSans-5d" x="1016.894531"/>
     </g>
    </g>
    <g id="line2d_160">
     <path d="M 440.607813 167.685312 
L 450.607813 167.685312 
L 460.607813 167.685312 
" style="fill: none; stroke: #7f7f7f; stroke-width: 1.5; stroke-linecap: square"/>
    </g>
    <g id="text_26">
     <!-- Q (70 мм)=3.45 [г/c] -->
     <g transform="translate(468.607813 171.185312) scale(0.1 -0.1)">
      <use xlink:href="#DejaVuSans-51"/>
      <use xlink:href="#DejaVuSans-20" x="78.710938"/>
      <use xlink:href="#DejaVuSans-28" x="110.498047"/>
      <use xlink:href="#DejaVuSans-37" x="149.511719"/>
      <use xlink:href="#DejaVuSans-30" x="213.134766"/>
      <use xlink:href="#DejaVuSans-20" x="276.757812"/>
      <use xlink:href="#DejaVuSans-43c" x="308.544922"/>
      <use xlink:href="#DejaVuSans-43c" x="383.984375"/>
      <use xlink:href="#DejaVuSans-29" x="459.423828"/>
      <use xlink:href="#DejaVuSans-3d" x="498.4375"/>
      <use xlink:href="#DejaVuSans-33" x="582.226562"/>
      <use xlink:href="#DejaVuSans-2e" x="645.849609"/>
      <use xlink:href="#DejaVuSans-34" x="677.636719"/>
      <use xlink:href="#DejaVuSans-35" x="741.259766"/>
      <use xlink:href="#DejaVuSans-20" x="804.882812"/>
      <use xlink:href="#DejaVuSans-5b" x="836.669922"/>
      <use xlink:href="#DejaVuSans-433" x="875.683594"/>
      <use xlink:href="#DejaVuSans-2f" x="928.222656"/>
      <use xlink:href="#DejaVuSans-63" x="961.914062"/>
      <use xlink:href="#DejaVuSans-5d" x="1016.894531"/>
     </g>
    </g>
    <g id="line2d_161">
     <path d="M 440.607813 182.363437 
L 450.607813 182.363437 
L 460.607813 182.363437 
" style="fill: none; stroke: #bcbd22; stroke-width: 1.5; stroke-linecap: square"/>
    </g>
    <g id="text_27">
     <!-- Q (80 мм)=4.02 [г/c] -->
     <g transform="translate(468.607813 185.863437) scale(0.1 -0.1)">
      <use xlink:href="#DejaVuSans-51"/>
      <use xlink:href="#DejaVuSans-20" x="78.710938"/>
      <use xlink:href="#DejaVuSans-28" x="110.498047"/>
      <use xlink:href="#DejaVuSans-38" x="149.511719"/>
      <use xlink:href="#DejaVuSans-30" x="213.134766"/>
      <use xlink:href="#DejaVuSans-20" x="276.757812"/>
      <use xlink:href="#DejaVuSans-43c" x="308.544922"/>
      <use xlink:href="#DejaVuSans-43c" x="383.984375"/>
      <use xlink:href="#DejaVuSans-29" x="459.423828"/>
      <use xlink:href="#DejaVuSans-3d" x="498.4375"/>
      <use xlink:href="#DejaVuSans-34" x="582.226562"/>
      <use xlink:href="#DejaVuSans-2e" x="645.849609"/>
      <use xlink:href="#DejaVuSans-30" x="677.636719"/>
      <use xlink:href="#DejaVuSans-32" x="741.259766"/>
      <use xlink:href="#DejaVuSans-20" x="804.882812"/>
      <use xlink:href="#DejaVuSans-5b" x="836.669922"/>
      <use xlink:href="#DejaVuSans-433" x="875.683594"/>
      <use xlink:href="#DejaVuSans-2f" x="928.222656"/>
      <use xlink:href="#DejaVuSans-63" x="961.914062"/>
      <use xlink:href="#DejaVuSans-5d" x="1016.894531"/>
     </g>
    </g>
    <g id="line2d_162">
     <path d="M 440.607813 197.041562 
L 450.607813 197.041562 
L 460.607813 197.041562 
" style="fill: none; stroke: #17becf; stroke-width: 1.5; stroke-linecap: square"/>
    </g>
    <g id="text_28">
     <!-- Q (90 мм)=5.30 [г/c] -->
     <g transform="translate(468.607813 200.541562) scale(0.1 -0.1)">
      <use xlink:href="#DejaVuSans-51"/>
      <use xlink:href="#DejaVuSans-20" x="78.710938"/>
      <use xlink:href="#DejaVuSans-28" x="110.498047"/>
      <use xlink:href="#DejaVuSans-39" x="149.511719"/>
      <use xlink:href="#DejaVuSans-30" x="213.134766"/>
      <use xlink:href="#DejaVuSans-20" x="276.757812"/>
      <use xlink:href="#DejaVuSans-43c" x="308.544922"/>
      <use xlink:href="#DejaVuSans-43c" x="383.984375"/>
      <use xlink:href="#DejaVuSans-29" x="459.423828"/>
      <use xlink:href="#DejaVuSans-3d" x="498.4375"/>
      <use xlink:href="#DejaVuSans-35" x="582.226562"/>
      <use xlink:href="#DejaVuSans-2e" x="645.849609"/>
      <use xlink:href="#DejaVuSans-33" x="677.636719"/>
      <use xlink:href="#DejaVuSans-30" x="741.259766"/>
      <use xlink:href="#DejaVuSans-20" x="804.882812"/>
      <use xlink:href="#DejaVuSans-5b" x="836.669922"/>
      <use xlink:href="#DejaVuSans-433" x="875.683594"/>
      <use xlink:href="#DejaVuSans-2f" x="928.222656"/>
      <use xlink:href="#DejaVuSans-63" x="961.914062"/>
      <use xlink:href="#DejaVuSans-5d" x="1016.894531"/>
     </g>
    </g>
   </g>
  </g>
 </g>
 <defs>
  <clipPath id="p80bdee05c5">
   <rect x="81" y="51.84" width="502.2" height="332.64"/>
  </clipPath>
 </defs>
</svg>
